<svg width="29" height="29" viewBox="0 0 29 29" fill="none" xmlns="http://www.w3.org/2000/svg">
<g clip-path="url(#clip0)">
<path d="M12.6588 4.16726L12.6607 4.16555L14.0978 2.90813C14.5188 2.53977 15.2198 2.54213 15.6317 2.90638L15.6338 2.90821L28.2176 13.9134C28.2177 13.9134 28.2177 13.9135 28.2177 13.9135C28.5997 14.2478 28.5965 14.7529 28.2196 15.0792L28.2176 15.0809L15.6337 26.0919C15.2127 26.4602 14.5116 26.4579 14.0998 26.0936L14.0978 26.0919L12.6607 24.8345C12.2793 24.5007 12.2831 23.9833 12.6782 23.6514C12.6784 23.6513 12.6786 23.6512 12.6787 23.651L20.4777 17.1497L21.5383 16.2656H20.1576H1.55357C0.903974 16.2656 0.5 15.8228 0.5 15.4063V13.5938C0.5 13.1772 0.903973 12.7344 1.55357 12.7344H20.1576H21.5383L20.4777 11.8503L12.6775 5.34797L12.6768 5.34736C12.2772 5.01559 12.2734 4.5009 12.6588 4.16726Z" stroke="white"/>
</g>
<defs>
<clipPath id="clip0">
<rect width="29" height="29" fill="white"/>
</clipPath>
</defs>
</svg>
