<svg width="25" height="23" viewBox="0 0 25 23" fill="none" xmlns="http://www.w3.org/2000/svg">
<path d="M3.49185 7.44148H0V15.2167H3.49185L10.0898 20.11C10.0898 20.11 11.2999 21.1248 11.2999 20.0771C11.2999 19.0271 11.2999 3.3838 11.2999 2.429C11.2999 1.60626 10.2355 2.40979 10.2355 2.40979L3.49185 7.44148Z" fill="#030104"/>
<path d="M15.0591 5.92408C14.7101 5.57674 14.1491 5.57674 13.8041 5.92408C13.4552 6.27143 13.4552 6.83486 13.8041 7.179C14.9454 8.32428 15.5112 9.8089 15.5128 11.3063C15.5112 12.8069 14.9454 14.3012 13.8041 15.4408C13.4552 15.7882 13.4552 16.35 13.8041 16.6998C13.9762 16.8742 14.2027 16.9591 14.4324 16.9591C14.6573 16.9591 14.8854 16.8742 15.0591 16.6998C16.5437 15.2119 17.2896 13.2535 17.288 11.3063C17.2904 9.35751 16.5445 7.4095 15.0591 5.92408Z" fill="#030104"/>
<path d="M17.4665 3.12688C17.1159 2.77794 16.5549 2.77794 16.2084 3.12688C15.8642 3.47503 15.8642 4.03686 16.2084 4.38501C18.1276 6.3026 19.0831 8.80284 19.0864 11.3135C19.0831 13.8377 18.1316 16.3492 16.2084 18.278C15.8626 18.6253 15.8642 19.1848 16.2084 19.5345C16.3836 19.7042 16.6101 19.7922 16.8382 19.7922C17.0647 19.7922 17.2928 19.7042 17.4665 19.5345C19.733 17.2616 20.8615 14.2827 20.8615 11.3135C20.8615 8.35386 19.7242 5.38702 17.4665 3.12688Z" fill="#030104"/>
<path d="M20.4149 0.261709C20.0691 -0.0872363 19.5065 -0.0872363 19.1584 0.261709C18.8142 0.609053 18.8142 1.17249 19.1584 1.51663C21.8691 4.22736 23.2224 7.76643 23.2224 11.3167C23.2224 14.8774 21.8731 18.4269 19.1584 21.1432C18.811 21.4897 18.8142 22.0548 19.1584 22.3997C19.3336 22.5718 19.5617 22.6574 19.7898 22.6574C20.0147 22.6574 20.2412 22.5718 20.4149 22.3997C23.4738 19.3384 25.0008 15.3208 25 11.3159C25.0008 7.31824 23.4657 3.31258 20.4149 0.261709Z" fill="#030104"/>
</svg>
