<svg width="64" height="64" viewBox="0 0 64 64" fill="none" xmlns="http://www.w3.org/2000/svg">
<path d="M50.2899 15.51H29.1899C28.2483 15.51 27.4899 16.2683 27.4899 17.21V24.3517H21.3566C20.8733 24.3517 20.4066 24.56 20.0816 24.9267L11.5816 34.51C11.3066 34.8183 11.1566 35.2183 11.1566 35.635V43.6767C11.1566 44.6183 11.9149 45.3767 12.8566 45.3767H15.4566C16.2816 47.6933 18.4899 49.3517 21.0899 49.3517C23.6899 49.3517 25.8983 47.6933 26.7233 45.3767H29.1816H36.9733C37.7983 47.6933 40.0066 49.3517 42.6066 49.3517C45.2066 49.3517 47.4149 47.6933 48.2399 45.3767H50.2899C51.2316 45.3767 51.9899 44.6183 51.9899 43.6767V17.21C51.9899 16.2683 51.2316 15.51 50.2899 15.51ZM21.0983 45.9433C19.6816 45.9433 18.5233 44.7933 18.5233 43.3767C18.5233 41.96 19.6816 40.81 21.0983 40.81C22.5149 40.81 23.6733 41.96 23.6733 43.3767C23.6649 44.7933 22.5149 45.9433 21.0983 45.9433ZM21.0983 37.41C18.2899 37.41 15.9233 39.36 15.2899 41.9683H14.5649V36.2683L22.1233 27.7433H27.4899V41.9683H26.9066C26.2649 39.36 23.9066 37.41 21.0983 37.41ZM42.6066 45.9433C41.1899 45.9433 40.0316 44.7933 40.0316 43.3767C40.0316 41.96 41.1899 40.81 42.6066 40.81C44.0233 40.81 45.1816 41.96 45.1816 43.3767C45.1816 44.7933 44.0233 45.9433 42.6066 45.9433ZM48.5899 41.9683H48.4149C47.7816 39.3517 45.4149 37.41 42.6066 37.41C39.7983 37.41 37.4316 39.36 36.7983 41.9683H30.8816V26.0517V18.91H48.5816V41.9683H48.5899Z" fill="#ECEAEA"/>
<circle cx="32" cy="32" r="30.72" stroke="#ECEAEA" stroke-width="2.56" stroke-dasharray="2.56 5.12"/>
</svg>
