<svg width="40" height="40" viewBox="0 0 40 40" fill="none" xmlns="http://www.w3.org/2000/svg">
<circle cx="20" cy="20" r="20" fill="#599B47"/>
<path d="M29.8491 31.3543L28.6292 28.8914C28.9662 28.4911 29.0579 27.8943 28.8076 27.39L25.9086 21.5391H27.7281C28.1791 21.5391 28.5425 21.146 28.5425 20.6621C28.5425 20.1774 28.1791 19.7851 27.7281 19.7851H25.0398L23.6663 17.01C24.8729 15.8964 25.641 14.2465 25.641 12.4C25.641 9.34384 23.5424 6.82224 20.8135 6.39619V4.87789C20.8144 4.39314 20.4501 4 20 4C19.5499 4 19.1856 4.39314 19.1856 4.87789V6.39441C16.4568 6.82046 14.3581 9.34206 14.3581 12.3982C14.3581 14.2447 15.1254 15.8947 16.3313 17.0083L14.9578 19.7825H13.054C12.6039 19.7825 12.2396 20.1747 12.2396 20.6595C12.2396 21.1433 12.6039 21.5365 13.054 21.5365H14.0897L11.1916 27.3873C10.9421 27.8925 11.0321 28.4902 11.3708 28.8905L10.1517 31.3534C10.046 31.5668 10.1212 31.8328 10.3194 31.9466C10.3805 31.9813 10.4466 31.9982 10.511 31.9982C10.6564 31.9982 10.7976 31.9146 10.8711 31.767L12.0926 29.3023C12.1513 29.3121 12.2107 29.3245 12.2694 29.3245C12.7063 29.3245 13.1292 29.071 13.3489 28.6281L16.8598 21.5382H23.141L26.652 28.6281C26.8717 29.0728 27.2937 29.3245 27.7306 29.3245C27.7901 29.3245 27.8512 29.3112 27.9098 29.3023L29.1314 31.767C29.2049 31.9146 29.3461 32 29.4923 32C29.5567 32 29.622 31.9822 29.6831 31.9475C29.8797 31.8337 29.9548 31.5677 29.8491 31.3543ZM17.7287 19.7834L18.4894 18.2464C18.9709 18.3905 19.4755 18.4741 20 18.4741C20.5245 18.4741 21.0308 18.3905 21.5123 18.2464L22.2729 19.7842L17.7287 19.7834ZM19.2839 16.6409L20 15.1956L20.7161 16.6409C20.4823 16.6863 20.2453 16.7192 19.9992 16.7192C19.7547 16.7192 19.5168 16.6872 19.2839 16.6409ZM22.8734 15.4028L21.6411 12.9141C21.3809 12.3858 20.868 12.0558 20.3122 12.0558H19.6886C19.1328 12.0558 18.6215 12.3858 18.3605 12.9141L17.1274 15.4037C16.4254 14.6254 15.9885 13.5679 15.9885 12.3991C15.9885 10.0172 17.7882 8.07903 20 8.07903C22.2118 8.07903 24.0123 10.0172 24.0123 12.3991C24.0115 13.567 23.5746 14.6254 22.8734 15.4028Z" fill="white"/>
</svg>
