<svg width="27" height="32" viewBox="0 0 27 32" fill="none" xmlns="http://www.w3.org/2000/svg">
<path d="M8.55531 19.7116C8.30241 19.4982 8.00996 19.3367 7.69465 19.2363C7.37934 19.136 7.04734 19.0987 6.71762 19.1266C6.05172 19.183 5.4355 19.5016 5.00452 20.0124C4.57354 20.5231 4.36311 21.1842 4.41952 21.8501C4.47593 22.516 4.79455 23.1322 5.3053 23.5632V25.7279C5.31127 26.1609 5.48748 26.5742 5.79583 26.8784C6.10418 27.1825 6.51986 27.353 6.95296 27.353C7.38606 27.353 7.80174 27.1825 8.11009 26.8784C8.41844 26.5742 8.59466 26.1609 8.60062 25.7279V23.5635C8.87823 23.3237 9.10012 23.0261 9.25078 22.6916C9.40145 22.3571 9.47726 21.9938 9.47291 21.6269C9.46857 21.2601 9.38417 20.8987 9.22563 20.5678C9.06708 20.237 8.83821 19.9448 8.555 19.7116H8.55531ZM7.74812 22.8407C7.67391 22.8908 7.61313 22.9583 7.57112 23.0374C7.52911 23.1164 7.50716 23.2046 7.50718 23.2941V25.7276C7.50375 25.8722 7.44388 26.0097 7.34038 26.1108C7.23687 26.2119 7.09794 26.2685 6.95327 26.2685C6.80861 26.2685 6.66968 26.2119 6.56617 26.1108C6.46267 26.0097 6.4028 25.8722 6.39937 25.7276V23.2941C6.3994 23.2045 6.37739 23.1163 6.33526 23.0372C6.29313 22.9581 6.23219 22.8906 6.1578 22.8407C5.92452 22.6841 5.74264 22.4622 5.63496 22.2028C5.52727 21.9433 5.49858 21.6578 5.55247 21.3821C5.60637 21.1064 5.74045 20.8527 5.93792 20.6529C6.13538 20.4531 6.38744 20.316 6.66249 20.2588C6.75925 20.2397 6.85763 20.2301 6.95624 20.23C7.28645 20.229 7.60649 20.3441 7.86031 20.5554C8.03204 20.6965 8.16838 20.8759 8.25844 21.0792C8.34849 21.2824 8.38976 21.5039 8.37895 21.726C8.36814 21.948 8.30555 22.1645 8.19618 22.358C8.08681 22.5516 7.93369 22.7169 7.74906 22.8407H7.74812Z" fill="#F2F2F2"/>
<path d="M26.2962 9.53531L13.9062 9.12813V1.67625C13.9058 1.23189 13.729 0.805862 13.4148 0.491621C13.1007 0.17738 12.6747 0.000578967 12.2303 0H1.67594C1.23158 0.000578967 0.805583 0.17738 0.4914 0.491621C0.177217 0.805862 0.000496118 1.23189 0 1.67625V29.48C0.000496118 29.9244 0.177217 30.3504 0.4914 30.6646C0.805583 30.9789 1.23158 31.1557 1.67594 31.1562H12.2303C12.6747 31.1557 13.1007 30.9789 13.4148 30.6646C13.729 30.3504 13.9058 29.9244 13.9062 29.48V14.2656L26.2962 13.8594C26.4381 13.8547 26.5725 13.795 26.6712 13.693C26.7698 13.5911 26.825 13.4547 26.825 13.3128V10.0819C26.825 9.93998 26.7698 9.80363 26.6712 9.70165C26.5725 9.59966 26.4381 9.54002 26.2962 9.53531ZM12.8125 29.48C12.8123 29.6344 12.751 29.7824 12.6418 29.8916C12.5327 30.0008 12.3847 30.0623 12.2303 30.0625H1.67594C1.52155 30.0623 1.37357 30.0008 1.26443 29.8916C1.1553 29.7824 1.09392 29.6344 1.09375 29.48V1.67625C1.09392 1.52187 1.1553 1.37385 1.26443 1.26465C1.37357 1.15546 1.52155 1.094 1.67594 1.09375H12.2303C12.3847 1.094 12.5327 1.15546 12.6418 1.26465C12.751 1.37385 12.8123 1.52187 12.8125 1.67625V9.09219L10.8541 9.02781C10.2838 8.19457 9.46183 7.56579 8.50839 7.23356C7.55494 6.90133 6.52017 6.8831 5.55562 7.18154C4.59107 7.47998 3.74741 8.07941 3.1482 8.89205C2.54899 9.70469 2.22571 10.6878 2.22571 11.6975C2.22571 12.7072 2.54899 13.6903 3.1482 14.5029C3.74741 15.3156 4.59107 15.915 5.55562 16.2135C6.52017 16.5119 7.55494 16.4937 8.50839 16.1614C9.46183 15.8292 10.2838 15.2004 10.8541 14.3672L12.8116 14.3028L12.8125 29.48ZM7.28437 14.4844L9.35 14.4169C8.82545 14.8784 8.1788 15.1787 7.48773 15.2817C6.79665 15.3847 6.09054 15.286 5.45421 14.9974C4.81788 14.7089 4.27839 14.2427 3.90054 13.655C3.52268 13.0673 3.32254 12.383 3.32415 11.6843C3.32575 10.9856 3.52904 10.3022 3.90959 9.7162C4.29014 9.13022 4.83177 8.66657 5.46942 8.38093C6.10707 8.09529 6.81363 7.99982 7.50422 8.10598C8.19481 8.21214 8.84008 8.51541 9.3625 8.97937L7.28469 8.91094H7.26656C6.89508 8.90341 6.52583 8.97023 6.18054 9.10746C5.83525 9.24469 5.52088 9.44957 5.25591 9.71006C4.99095 9.97054 4.78073 10.2814 4.63762 10.6243C4.49452 10.9672 4.42141 11.3352 4.4226 11.7068C4.42378 12.0783 4.49924 12.4459 4.64454 12.7879C4.78983 13.1299 5.00203 13.4393 5.26866 13.6981C5.53529 13.9569 5.85096 14.1598 6.19712 14.2948C6.54328 14.4298 6.91294 14.4943 7.28437 14.4844ZM25.7312 12.7837L13.3603 13.19H13.3578L7.26687 13.3906C6.81766 13.3917 6.38641 13.2144 6.06798 12.8975C5.74955 12.5807 5.57003 12.1503 5.56891 11.7011C5.56779 11.2519 5.74516 10.8206 6.06201 10.5022C6.37886 10.1838 6.80923 10.0042 7.25844 10.0031L25.7312 10.6103V12.7837Z" fill="#F2F2F2"/>
<path d="M24.9583 21.25H24.0833V20.0833C24.0833 17.8318 22.2516 16 20 16C17.7484 16 15.9167 17.8318 15.9167 20.0833V21.25H15.0417C14.8805 21.25 14.75 21.3805 14.75 21.5417V28.8334C14.75 29.4768 15.2732 30 15.9167 30H24.0834C24.7268 30 25.25 29.4768 25.25 28.8333V21.5417C25.25 21.3805 25.1195 21.25 24.9583 21.25ZM20.8733 27.3428C20.8824 27.4251 20.8559 27.5077 20.8007 27.5696C20.7454 27.6313 20.6662 27.6667 20.5834 27.6667H19.4167C19.3338 27.6667 19.2546 27.6313 19.1993 27.5696C19.1441 27.5078 19.1176 27.4251 19.1267 27.3428L19.3107 25.6882C19.0119 25.4709 18.8334 25.1271 18.8334 24.75C18.8334 24.1066 19.3566 23.5833 20 23.5833C20.6435 23.5833 21.1667 24.1065 21.1667 24.75C21.1667 25.1271 20.9881 25.4709 20.6893 25.6882L20.8733 27.3428ZM22.3333 21.25H17.6667V20.0833C17.6667 18.7967 18.7134 17.75 20 17.75C21.2866 17.75 22.3333 18.7967 22.3333 20.0833V21.25V21.25Z" fill="#F2F2F2"/>
</svg>
