<svg width="90" height="39" viewBox="0 0 90 39" fill="none" xmlns="http://www.w3.org/2000/svg">
<path d="M11.0491 2.61162H15.4687V31.5402H11.0491V2.61162Z" stroke="white" stroke-width="1.20536"/>
<path d="M0.602679 31.5079V2.91423L11.0491 0.740964V35.6734L0.602679 31.5079Z" stroke="white" stroke-width="1.20536"/>
<path d="M25.9151 31.5079V2.91423L15.4687 0.740964V35.6734L25.9151 31.5079Z" stroke="white" stroke-width="1.20536"/>
<circle cx="17.6786" cy="16.875" r="0.803571" fill="white"/>
<circle cx="8.83934" cy="16.875" r="0.803571" fill="white"/>
<path d="M38.5612 27.3272C37.3654 27.3272 36.2983 27.0507 35.3597 26.4979C34.434 25.9322 33.714 25.1736 33.1997 24.2222C32.6983 23.2579 32.4476 22.21 32.4476 21.0786C32.4476 19.7543 32.7819 18.6229 33.4504 17.6843C34.119 16.7329 34.974 16.0193 36.0154 15.5436C37.0697 15.0679 38.1433 14.83 39.2362 14.83C40.4576 14.83 41.5311 15.1193 42.4569 15.6979C43.3826 16.2636 44.0897 17.0157 44.5783 17.9543C45.0797 18.8929 45.3304 19.8893 45.3304 20.9436C45.3304 22.1136 45.0219 23.1872 44.4047 24.1643C43.7876 25.1414 42.9583 25.9129 41.9169 26.4786C40.8883 27.0443 39.7697 27.3272 38.5612 27.3272ZM39.2362 26.9029C40.059 26.9029 40.7983 26.6907 41.454 26.2664C42.1097 25.8422 42.624 25.225 42.9969 24.415C43.3826 23.5922 43.5754 22.615 43.5754 21.4836C43.5754 20.2879 43.3633 19.2207 42.939 18.2822C42.5276 17.3436 41.9297 16.6107 41.1454 16.0836C40.374 15.5564 39.474 15.2929 38.4454 15.2929C37.1083 15.2929 36.0669 15.7493 35.3212 16.6622C34.5754 17.5622 34.2026 18.8093 34.2026 20.4036C34.2026 21.625 34.4147 22.7307 34.839 23.7207C35.2633 24.7107 35.8547 25.4886 36.6133 26.0543C37.3847 26.62 38.259 26.9029 39.2362 26.9029ZM52.9507 26.9222C52.9796 26.9222 52.9941 26.9511 52.9941 27.0089C52.9941 27.0668 52.9796 27.0957 52.9507 27.0957H51.3307C51.2536 27.0957 51.1957 27.0813 51.1571 27.0523C51.1282 27.0234 51.0366 26.8932 50.8823 26.6618C50.728 26.4207 50.5062 26.1025 50.217 25.7072C49.8602 25.2057 49.6143 24.8779 49.4793 24.7236C49.3539 24.5693 49.2189 24.4632 49.0743 24.4054C48.9393 24.3475 48.7368 24.3234 48.4668 24.3331V25.9241C48.4668 26.2134 48.4861 26.4304 48.5246 26.575C48.5728 26.71 48.6548 26.8016 48.7705 26.8498C48.8959 26.8981 49.0887 26.9222 49.3491 26.9222C49.3684 26.9222 49.378 26.9511 49.378 27.0089C49.378 27.0668 49.3684 27.0957 49.3491 27.0957C49.0887 27.0957 48.8911 27.0909 48.7561 27.0813L48.0039 27.0668L47.2084 27.0813C47.0637 27.0909 46.8612 27.0957 46.6009 27.0957C46.572 27.0957 46.5575 27.0668 46.5575 27.0089C46.5575 26.9511 46.572 26.9222 46.6009 26.9222C46.8612 26.9222 47.0493 26.8981 47.165 26.8498C47.2903 26.8016 47.3723 26.71 47.4109 26.575C47.4591 26.44 47.4832 26.2231 47.4832 25.9241V18.4895C47.4832 18.1423 47.4495 17.8964 47.382 17.7518C47.3241 17.5975 47.2132 17.5204 47.0493 17.5204C46.8757 17.5204 46.6636 17.5831 46.4128 17.7084H46.3839C46.355 17.7084 46.3309 17.6843 46.3116 17.6361C46.2923 17.5879 46.2971 17.5589 46.3261 17.5493L48.2353 16.6236L48.3077 16.6091C48.3462 16.6091 48.38 16.6236 48.4089 16.6525C48.4475 16.6814 48.4668 16.7152 48.4668 16.7538V24.0727L49.3057 24.0438C49.5371 24.0438 49.7686 23.8027 50 23.3206C50.3761 22.5781 50.6798 22.0718 50.9112 21.8018C51.1427 21.5222 51.4223 21.3823 51.7502 21.3823C51.9816 21.3823 52.16 21.4354 52.2853 21.5414C52.4107 21.6475 52.4734 21.7825 52.4734 21.9464C52.4734 22.12 52.4155 22.2647 52.2998 22.3804C52.1937 22.4961 52.0443 22.5539 51.8514 22.5539C51.7164 22.5539 51.5814 22.5154 51.4464 22.4382C51.3307 22.3804 51.2343 22.3514 51.1571 22.3514C50.9257 22.3514 50.622 22.7034 50.2459 23.4073C50.0916 23.7256 49.9421 23.9473 49.7975 24.0727C50.0386 24.1209 50.2362 24.2222 50.3905 24.3764C50.5545 24.5307 50.8389 24.8779 51.2439 25.4179C51.3596 25.5722 51.4802 25.7457 51.6055 25.9386C51.8659 26.305 52.078 26.5606 52.242 26.7052C52.4155 26.8402 52.6518 26.9125 52.9507 26.9222ZM56.136 27.2838C55.5671 27.2838 55.0657 27.1488 54.6317 26.8788C54.1978 26.5991 53.8603 26.2279 53.6192 25.765C53.3878 25.2925 53.2721 24.7814 53.2721 24.2318C53.2721 23.605 53.4264 23.0747 53.7349 22.6407C54.0435 22.1972 54.4389 21.8693 54.921 21.6572C55.4032 21.4354 55.8949 21.3245 56.3964 21.3245C56.9653 21.3245 57.4667 21.4643 57.9007 21.7439C58.3346 22.0236 58.6673 22.3948 58.8987 22.8577C59.1301 23.3109 59.2458 23.7931 59.2458 24.3041C59.2458 24.8923 59.1012 25.4131 58.8119 25.8663C58.5323 26.3195 58.1562 26.6714 57.6837 26.9222C57.2112 27.1632 56.6953 27.2838 56.136 27.2838ZM56.5555 27.0089C57.0376 27.0089 57.4089 26.8209 57.6692 26.4448C57.9296 26.0688 58.0598 25.5047 58.0598 24.7525C58.0598 24.1257 57.9633 23.5761 57.7705 23.1036C57.5873 22.6214 57.3317 22.255 57.0039 22.0043C56.676 21.7439 56.3096 21.6138 55.9046 21.6138C55.4321 21.6138 55.0657 21.797 54.8053 22.1634C54.5546 22.5202 54.4292 23.0506 54.4292 23.7545C54.4292 24.362 54.5208 24.9164 54.704 25.4179C54.8873 25.9097 55.138 26.3002 55.4562 26.5895C55.784 26.8691 56.1505 27.0089 56.5555 27.0089ZM66.8457 26.9222C66.865 26.9222 66.8746 26.9511 66.8746 27.0089C66.8746 27.0668 66.865 27.0957 66.8457 27.0957C66.5853 27.0957 66.3828 27.0909 66.2382 27.0813L65.486 27.0668L64.6905 27.0813C64.5459 27.0909 64.3482 27.0957 64.0975 27.0957C64.0685 27.0957 64.0541 27.0668 64.0541 27.0089C64.0541 26.9511 64.0685 26.9222 64.0975 26.9222C64.3578 26.9222 64.5459 26.8981 64.6616 26.8498C64.7869 26.8016 64.8689 26.71 64.9075 26.575C64.9557 26.4304 64.9798 26.2134 64.9798 25.9241V24.4488H62.0725V25.9241C62.0725 26.2134 62.0918 26.4304 62.1303 26.575C62.1785 26.71 62.2605 26.8016 62.3762 26.8498C62.5016 26.8981 62.6944 26.9222 62.9548 26.9222C62.9741 26.9222 62.9837 26.9511 62.9837 27.0089C62.9837 27.0668 62.9741 27.0957 62.9548 27.0957C62.6944 27.0957 62.4919 27.0909 62.3473 27.0813L61.5951 27.0668L60.8141 27.0813C60.6694 27.0909 60.4669 27.0957 60.2066 27.0957C60.1776 27.0957 60.1632 27.0668 60.1632 27.0089C60.1632 26.9511 60.1776 26.9222 60.2066 26.9222C60.4669 26.9222 60.655 26.8981 60.7707 26.8498C60.896 26.8016 60.978 26.71 61.0166 26.575C61.0648 26.4304 61.0889 26.2134 61.0889 25.9241V23.2627C61.0889 22.8963 61.0551 22.6359 60.9876 22.4816C60.9201 22.3177 60.8093 22.2357 60.655 22.2357C60.5585 22.2357 60.4091 22.2743 60.2066 22.3514H60.1776C60.1487 22.3514 60.1246 22.3273 60.1053 22.2791C60.0957 22.2309 60.1053 22.202 60.1343 22.1923L61.841 21.3968L61.8989 21.3823C61.9375 21.3823 61.976 21.3968 62.0146 21.4257C62.0532 21.4547 62.0725 21.4884 62.0725 21.527V24.1595H64.9798V23.2627C64.9798 22.8963 64.946 22.6359 64.8785 22.4816C64.811 22.3177 64.7001 22.2357 64.5459 22.2357C64.4494 22.2357 64.3 22.2743 64.0975 22.3514H64.0685C64.0396 22.3514 64.0155 22.3273 63.9962 22.2791C63.9866 22.2309 63.9962 22.202 64.0251 22.1923L65.7319 21.3968L65.7898 21.3823C65.8284 21.3823 65.8669 21.3968 65.9055 21.4257C65.9441 21.4547 65.9634 21.4884 65.9634 21.527V25.9241C65.9634 26.2134 65.9826 26.4304 66.0212 26.575C66.0694 26.71 66.1514 26.8016 66.2671 26.8498C66.3925 26.8981 66.5853 26.9222 66.8457 26.9222ZM74.3038 26.9222C74.3231 26.9222 74.3328 26.9511 74.3328 27.0089C74.3328 27.0668 74.3231 27.0957 74.3038 27.0957C74.0435 27.0957 73.841 27.0909 73.6963 27.0813L72.9442 27.0668L72.1487 27.0813C72.004 27.0909 71.8063 27.0957 71.5556 27.0957C71.5267 27.0957 71.5122 27.0668 71.5122 27.0089C71.5122 26.9511 71.5267 26.9222 71.5556 26.9222C71.816 26.9222 72.004 26.8981 72.1197 26.8498C72.2451 26.8016 72.327 26.71 72.3656 26.575C72.4138 26.4304 72.4379 26.2134 72.4379 25.9241V24.4488H69.5306V25.9241C69.5306 26.2134 69.5499 26.4304 69.5885 26.575C69.6367 26.71 69.7187 26.8016 69.8344 26.8498C69.9597 26.8981 70.1526 26.9222 70.4129 26.9222C70.4322 26.9222 70.4419 26.9511 70.4419 27.0089C70.4419 27.0668 70.4322 27.0957 70.4129 27.0957C70.1526 27.0957 69.9501 27.0909 69.8054 27.0813L69.0533 27.0668L68.2722 27.0813C68.1276 27.0909 67.9251 27.0957 67.6647 27.0957C67.6358 27.0957 67.6213 27.0668 67.6213 27.0089C67.6213 26.9511 67.6358 26.9222 67.6647 26.9222C67.9251 26.9222 68.1131 26.8981 68.2288 26.8498C68.3542 26.8016 68.4362 26.71 68.4747 26.575C68.5229 26.4304 68.547 26.2134 68.547 25.9241V23.2627C68.547 22.8963 68.5133 22.6359 68.4458 22.4816C68.3783 22.3177 68.2674 22.2357 68.1131 22.2357C68.0167 22.2357 67.8672 22.2743 67.6647 22.3514H67.6358C67.6069 22.3514 67.5828 22.3273 67.5635 22.2791C67.5538 22.2309 67.5635 22.202 67.5924 22.1923L69.2992 21.3968L69.357 21.3823C69.3956 21.3823 69.4342 21.3968 69.4728 21.4257C69.5113 21.4547 69.5306 21.4884 69.5306 21.527V24.1595H72.4379V23.2627C72.4379 22.8963 72.4042 22.6359 72.3367 22.4816C72.2692 22.3177 72.1583 22.2357 72.004 22.2357C71.9076 22.2357 71.7581 22.2743 71.5556 22.3514H71.5267C71.4978 22.3514 71.4737 22.3273 71.4544 22.2791C71.4447 22.2309 71.4544 22.202 71.4833 22.1923L73.1901 21.3968L73.2479 21.3823C73.2865 21.3823 73.3251 21.3968 73.3637 21.4257C73.4022 21.4547 73.4215 21.4884 73.4215 21.527V25.9241C73.4215 26.2134 73.4408 26.4304 73.4794 26.575C73.5276 26.71 73.6095 26.8016 73.7253 26.8498C73.8506 26.8981 74.0435 26.9222 74.3038 26.9222ZM78.0736 23.8123C78.7679 23.8123 79.2838 23.9425 79.6213 24.2029C79.9588 24.4632 80.1275 24.8586 80.1275 25.3889C80.1275 25.9772 79.925 26.44 79.52 26.7775C79.115 27.115 78.5172 27.2838 77.7264 27.2838C77.0804 27.2838 76.5886 27.1681 76.2511 26.9366C75.9136 26.6956 75.7448 26.3436 75.7448 25.8807V23.2627C75.7448 22.8963 75.7111 22.6359 75.6436 22.4816C75.5761 22.3177 75.4652 22.2357 75.3109 22.2357C75.2145 22.2357 75.065 22.2743 74.8625 22.3514H74.8336C74.8047 22.3514 74.7806 22.3273 74.7613 22.2791C74.7516 22.2309 74.7613 22.202 74.7902 22.1923L76.497 21.3968L76.5548 21.3823C76.5934 21.3823 76.632 21.3968 76.6706 21.4257C76.7091 21.4547 76.7284 21.4884 76.7284 21.527V23.9859C77.1141 23.8702 77.5625 23.8123 78.0736 23.8123ZM83.57 26.9222C83.5989 26.9222 83.6134 26.9511 83.6134 27.0089C83.6134 27.0668 83.5989 27.0957 83.57 27.0957C83.3386 27.0957 83.1506 27.0909 83.0059 27.0813L82.2104 27.0668L81.4148 27.0813C81.2702 27.0909 81.0822 27.0957 80.8507 27.0957C80.8218 27.0957 80.8073 27.0668 80.8073 27.0089C80.8073 26.9511 80.8218 26.9222 80.8507 26.9222C81.1979 26.9222 81.4293 26.8595 81.545 26.7341C81.6607 26.5991 81.7186 26.3291 81.7186 25.9241V23.2627C81.7186 22.9156 81.6848 22.6697 81.6173 22.525C81.5498 22.3707 81.4293 22.2936 81.2557 22.2936C81.0918 22.2936 80.8845 22.3563 80.6338 22.4816H80.6193C80.5807 22.4816 80.5518 22.4575 80.5325 22.4093C80.5132 22.3514 80.5229 22.3177 80.5614 22.3081L82.5286 21.3968L82.5864 21.3823C82.6154 21.3823 82.6443 21.3968 82.6732 21.4257C82.7118 21.4547 82.7311 21.4884 82.7311 21.527C82.7311 21.5945 82.7263 21.7873 82.7166 22.1056C82.707 22.4238 82.7022 22.7998 82.7022 23.2338V25.9241C82.7022 26.3291 82.7552 26.5991 82.8613 26.7341C82.977 26.8595 83.2132 26.9222 83.57 26.9222ZM77.9289 27.0813C78.6714 27.0813 79.0427 26.6184 79.0427 25.6927C79.0427 25.2009 78.9222 24.8104 78.6811 24.5211C78.4497 24.2318 78.0784 24.0872 77.5673 24.0872C77.2684 24.0872 76.9888 24.1306 76.7284 24.2173V25.5191C76.7284 26.0206 76.8248 26.4063 77.0177 26.6763C77.2202 26.9463 77.5239 27.0813 77.9289 27.0813ZM89.4196 26.2423C89.4485 26.2423 89.4726 26.2616 89.4919 26.3002C89.5208 26.3291 89.5256 26.3581 89.5064 26.387C89.1689 26.6956 88.8217 26.9222 88.4649 27.0668C88.1178 27.2018 87.7417 27.2693 87.3367 27.2693C86.7581 27.2693 86.2567 27.1439 85.8324 26.8932C85.4178 26.6329 85.0996 26.2906 84.8778 25.8663C84.6656 25.442 84.5596 24.9839 84.5596 24.4922C84.5596 23.9232 84.6946 23.4025 84.9646 22.93C85.2442 22.4479 85.6251 22.0718 86.1073 21.8018C86.599 21.5222 87.139 21.3823 87.7273 21.3823C88.2673 21.3823 88.6867 21.5125 88.9856 21.7729C89.2846 22.0236 89.434 22.3707 89.434 22.8143C89.434 23.0554 89.381 23.1759 89.2749 23.1759H88.5806L85.7312 23.2048C85.6926 23.3977 85.6733 23.6339 85.6733 23.9136C85.6733 24.7429 85.871 25.4131 86.2664 25.9241C86.6714 26.4352 87.2258 26.6907 87.9298 26.6907C88.489 26.6907 88.9808 26.5413 89.4051 26.2423H89.4196ZM87.221 21.6716C86.8642 21.6716 86.5605 21.7873 86.3098 22.0188C86.059 22.2406 85.8806 22.5588 85.7746 22.9734L88.2624 22.9156C88.2528 22.5298 88.1564 22.2261 87.9731 22.0043C87.7899 21.7825 87.5392 21.6716 87.221 21.6716Z" fill="white"/>
<path d="M59.3638 30.3197C59.6274 30.3197 59.8717 30.3904 60.0967 30.5318C60.3217 30.6732 60.5017 30.879 60.6367 31.149C60.7717 31.419 60.8392 31.734 60.8392 32.094C60.8392 32.5761 60.7299 32.9843 60.5113 33.3186C60.2927 33.6465 60.0227 33.8907 59.7013 34.0515C59.3863 34.2122 59.0745 34.2925 58.766 34.2925C58.5667 34.2925 58.3867 34.2732 58.226 34.2347C58.0717 34.1961 57.911 34.1318 57.7438 34.0418V36.0379C57.7438 36.2307 57.7663 36.3722 57.8113 36.4622C57.8627 36.5522 57.956 36.6132 58.091 36.6454C58.226 36.684 58.4317 36.7032 58.7081 36.7032C58.721 36.7032 58.7274 36.7225 58.7274 36.7611C58.7274 36.7997 58.721 36.819 58.7081 36.819C58.4895 36.819 58.316 36.8157 58.1874 36.8093L57.4835 36.7997L56.9531 36.8093C56.8631 36.8157 56.7442 36.819 56.5963 36.819C56.577 36.819 56.5674 36.7997 56.5674 36.7611C56.5674 36.7225 56.577 36.7032 56.5963 36.7032C56.7699 36.7032 56.8985 36.684 56.982 36.6454C57.0656 36.6132 57.1235 36.5522 57.1556 36.4622C57.1877 36.3722 57.2038 36.2307 57.2038 36.0379V31.5057C57.2038 31.2743 57.1781 31.1104 57.1267 31.014C57.0752 30.9111 56.9852 30.8597 56.8567 30.8597C56.7152 30.8597 56.5449 30.9047 56.3456 30.9947L56.3263 31.0043C56.3006 31.0043 56.2845 30.9882 56.2781 30.9561C56.2652 30.924 56.2685 30.9015 56.2877 30.8886L57.3581 30.3775C57.371 30.3711 57.3935 30.3679 57.4256 30.3679C57.5156 30.3679 57.5895 30.4354 57.6474 30.5704C57.7052 30.7054 57.7374 30.8982 57.7438 31.149C58.2902 30.5961 58.8302 30.3197 59.3638 30.3197ZM59.0552 34.09C59.396 34.09 59.6756 33.9422 59.8942 33.6465C60.1127 33.3443 60.222 32.9265 60.222 32.3929C60.222 31.8529 60.1031 31.435 59.8652 31.1393C59.6274 30.8372 59.3252 30.6861 58.9588 30.6861C58.7338 30.6861 58.5249 30.7407 58.332 30.85C58.1392 30.9593 57.9431 31.1136 57.7438 31.3129V33.4825C57.9174 33.6818 58.107 33.8329 58.3127 33.9357C58.5185 34.0386 58.766 34.09 59.0552 34.09ZM64.7228 33.6272C64.742 33.6272 64.7581 33.64 64.771 33.6657C64.7903 33.685 64.7935 33.7043 64.7806 33.7236C64.3435 34.0965 63.8742 34.2829 63.3728 34.2829C62.9935 34.2829 62.6656 34.1961 62.3892 34.0225C62.1128 33.849 61.9038 33.624 61.7624 33.3475C61.6274 33.0647 61.5599 32.7593 61.5599 32.4315C61.5599 32.0457 61.6499 31.6954 61.8299 31.3804C62.0163 31.0654 62.267 30.8179 62.582 30.6379C62.897 30.4515 63.2474 30.3582 63.6331 30.3582C63.9803 30.3582 64.2503 30.445 64.4431 30.6186C64.636 30.7857 64.7324 31.0172 64.7324 31.3129C64.7324 31.39 64.7228 31.4479 64.7035 31.4865C64.6906 31.5186 64.6617 31.5347 64.6167 31.5347L62.2445 31.554C62.2124 31.7275 62.1963 31.8947 62.1963 32.0554C62.1963 32.6147 62.3313 33.0711 62.6013 33.4247C62.8713 33.7718 63.2442 33.9454 63.7199 33.9454C64.0863 33.9454 64.4174 33.8393 64.7131 33.6272H64.7228ZM63.3053 30.5511C63.0417 30.5511 62.8199 30.6282 62.6399 30.7825C62.4663 30.9304 62.3442 31.1425 62.2735 31.419L64.067 31.3804C64.067 31.1168 63.9963 30.9143 63.8549 30.7729C63.7199 30.625 63.5367 30.5511 63.3053 30.5511ZM72.2751 33.6079C72.3008 33.6079 72.3169 33.624 72.3233 33.6561C72.3361 33.6818 72.3329 33.7011 72.3136 33.714L71.1758 34.2443C71.1629 34.2507 71.1469 34.254 71.1276 34.254C71.0633 34.254 70.999 34.18 70.9347 34.0322C70.8769 33.8843 70.8479 33.6947 70.8479 33.4632V33.4536C70.3915 34 69.9158 34.2732 69.4208 34.2732C69.1315 34.2732 68.8969 34.2025 68.7169 34.0611C68.5433 33.9132 68.434 33.6979 68.389 33.415C67.9261 33.9872 67.4408 34.2732 66.9329 34.2732C66.5922 34.2732 66.3319 34.1768 66.1519 33.984C65.9719 33.7847 65.8819 33.489 65.8819 33.0968V31.5829C65.8819 31.3322 65.8594 31.1522 65.8144 31.0429C65.7694 30.9272 65.6954 30.8693 65.5926 30.8693C65.5026 30.8693 65.3933 30.9015 65.2647 30.9657H65.2551C65.2294 30.9657 65.2101 30.9497 65.1972 30.9175C65.1844 30.879 65.1908 30.8565 65.2165 30.85L66.2869 30.3679L66.3254 30.3582C66.3447 30.3582 66.364 30.3679 66.3833 30.3872C66.409 30.4 66.4219 30.4161 66.4219 30.4354V32.7593C66.4219 33.1386 66.4894 33.4215 66.6244 33.6079C66.7594 33.7879 66.9683 33.8779 67.2511 33.8779C67.444 33.8779 67.6369 33.8232 67.8297 33.714C68.029 33.6047 68.2122 33.4536 68.3794 33.2607C68.3729 33.235 68.3697 33.1868 68.3697 33.1161V31.5829C68.3697 31.3322 68.3472 31.1522 68.3022 31.0429C68.2572 30.9272 68.1833 30.8693 68.0804 30.8693C68.0097 30.8693 67.9004 30.9015 67.7526 30.9657H67.7429C67.7172 30.9657 67.6979 30.9497 67.6851 30.9175C67.6722 30.879 67.6786 30.8565 67.7044 30.85L68.7747 30.3679L68.8133 30.3582C68.8326 30.3582 68.8519 30.3679 68.8711 30.3872C68.8969 30.4 68.9097 30.4161 68.9097 30.4354V32.7593C68.9097 33.1386 68.9772 33.4215 69.1122 33.6079C69.2472 33.7879 69.4561 33.8779 69.739 33.8779C69.9319 33.8779 70.1247 33.8265 70.3176 33.7236C70.5104 33.6143 70.6872 33.4665 70.8479 33.28V31.5829C70.8479 31.3257 70.8254 31.1425 70.7804 31.0332C70.7419 30.924 70.6679 30.8693 70.5586 30.8693C70.4879 30.8693 70.3786 30.9015 70.2308 30.9657H70.2211C70.1954 30.9657 70.1761 30.9497 70.1633 30.9175C70.1504 30.879 70.1569 30.8565 70.1826 30.85L71.2626 30.3679L71.2915 30.3582C71.3108 30.3582 71.3301 30.3679 71.3494 30.3872C71.3751 30.4 71.3879 30.4161 71.3879 30.4354V33.1354C71.3879 33.3475 71.4136 33.505 71.4651 33.6079C71.5229 33.7043 71.6129 33.7525 71.7351 33.7525C71.7994 33.7525 71.8733 33.7397 71.9569 33.714C72.0469 33.6818 72.1465 33.6465 72.2558 33.6079H72.2751ZM75.8441 33.6272C75.8633 33.6272 75.8794 33.64 75.8923 33.6657C75.9116 33.685 75.9148 33.7043 75.9019 33.7236C75.4648 34.0965 74.9955 34.2829 74.4941 34.2829C74.1148 34.2829 73.7869 34.1961 73.5105 34.0225C73.2341 33.849 73.0251 33.624 72.8837 33.3475C72.7487 33.0647 72.6812 32.7593 72.6812 32.4315C72.6812 32.0457 72.7712 31.6954 72.9512 31.3804C73.1376 31.0654 73.3883 30.8179 73.7033 30.6379C74.0183 30.4515 74.3687 30.3582 74.7544 30.3582C75.1016 30.3582 75.3716 30.445 75.5644 30.6186C75.7573 30.7857 75.8537 31.0172 75.8537 31.3129C75.8537 31.39 75.8441 31.4479 75.8248 31.4865C75.8119 31.5186 75.783 31.5347 75.738 31.5347L73.3658 31.554C73.3337 31.7275 73.3176 31.8947 73.3176 32.0554C73.3176 32.6147 73.4526 33.0711 73.7226 33.4247C73.9926 33.7718 74.3655 33.9454 74.8412 33.9454C75.2076 33.9454 75.5387 33.8393 75.8344 33.6272H75.8441ZM74.4266 30.5511C74.163 30.5511 73.9412 30.6282 73.7612 30.7825C73.5876 30.9304 73.4655 31.1425 73.3948 31.419L75.1883 31.3804C75.1883 31.1168 75.1176 30.9143 74.9762 30.7729C74.8412 30.625 74.658 30.5511 74.4266 30.5511ZM80.9471 34.0515C80.9599 34.0515 80.9664 34.0707 80.9664 34.1093C80.9664 34.1479 80.9599 34.1672 80.9471 34.1672C80.7799 34.1672 80.6482 34.164 80.5517 34.1575L80.0696 34.1479L79.5489 34.1575C79.4589 34.164 79.3335 34.1672 79.1728 34.1672C79.1535 34.1672 79.1439 34.1479 79.1439 34.1093C79.1439 34.0707 79.1535 34.0515 79.1728 34.0515C79.3528 34.0515 79.4846 34.0354 79.5682 34.0032C79.6517 33.9711 79.7096 33.91 79.7417 33.82C79.7739 33.7236 79.7899 33.579 79.7899 33.3861V32.4025H77.736V33.3861C77.736 33.579 77.7489 33.7236 77.7746 33.82C77.8067 33.91 77.8646 33.9711 77.9482 34.0032C78.0382 34.0354 78.1732 34.0515 78.3532 34.0515C78.366 34.0515 78.3724 34.0707 78.3724 34.1093C78.3724 34.1479 78.366 34.1672 78.3532 34.1672C78.186 34.1672 78.0542 34.164 77.9578 34.1575L77.4757 34.1479L76.9646 34.1575C76.8746 34.164 76.746 34.1672 76.5789 34.1672C76.5596 34.1672 76.5499 34.1479 76.5499 34.1093C76.5499 34.0707 76.5596 34.0515 76.5789 34.0515C76.7589 34.0515 76.8907 34.0354 76.9742 34.0032C77.0642 33.9711 77.1221 33.91 77.1478 33.82C77.1799 33.7236 77.196 33.579 77.196 33.3861V31.5829C77.196 31.3322 77.1735 31.1522 77.1285 31.0429C77.0835 30.9272 77.0096 30.8693 76.9067 30.8693C76.8489 30.8693 76.7396 30.9015 76.5789 30.9657H76.5692C76.5435 30.9657 76.5242 30.9497 76.5114 30.9175C76.4985 30.879 76.5049 30.8565 76.5307 30.85L77.601 30.3679L77.6492 30.3582C77.6621 30.3582 77.6782 30.3679 77.6974 30.3872C77.7232 30.4 77.736 30.4161 77.736 30.4354V32.2097H79.7899V31.5829C79.7899 31.3322 79.7674 31.1522 79.7224 31.0429C79.6774 30.9272 79.6035 30.8693 79.5007 30.8693C79.4428 30.8693 79.3335 30.9015 79.1728 30.9657H79.1632C79.1374 30.9657 79.1182 30.9497 79.1053 30.9175C79.0924 30.879 79.0989 30.8565 79.1246 30.85L80.1949 30.3679L80.2432 30.3582C80.2624 30.3582 80.2817 30.3679 80.301 30.3872C80.3203 30.4 80.3299 30.4161 80.3299 30.4354V33.3861C80.3299 33.579 80.3428 33.7236 80.3685 33.82C80.4007 33.91 80.4585 33.9711 80.5421 34.0032C80.6321 34.0354 80.7671 34.0515 80.9471 34.0515ZM85.882 33.6175C85.9077 33.6175 85.9238 33.6336 85.9302 33.6657C85.943 33.6915 85.9366 33.7107 85.9109 33.7236L84.7827 34.254L84.7441 34.2636C84.6798 34.2636 84.6188 34.1897 84.5609 34.0418C84.503 33.894 84.4741 33.7011 84.4741 33.4632V33.4247C84.2234 33.7075 83.9727 33.9165 83.722 34.0515C83.4713 34.18 83.2109 34.2443 82.9409 34.2443C82.6195 34.2443 82.3688 34.1447 82.1888 33.9454C82.0088 33.7397 81.9188 33.444 81.9188 33.0582V31.5829C81.9188 31.3322 81.8963 31.1522 81.8513 31.0429C81.8063 30.9272 81.7323 30.8693 81.6295 30.8693C81.5395 30.8693 81.4302 30.9015 81.3016 30.9657H81.292C81.2663 30.9657 81.247 30.9497 81.2341 30.9175C81.2213 30.879 81.2277 30.8565 81.2534 30.85L82.3238 30.3679L82.3623 30.3582C82.3816 30.3582 82.4009 30.3679 82.4202 30.3872C82.4459 30.4 82.4588 30.4161 82.4588 30.4354V32.74C82.4588 33.4857 82.7288 33.8586 83.2688 33.8586C83.4745 33.8586 83.6834 33.8072 83.8955 33.7043C84.1077 33.595 84.3005 33.4472 84.4741 33.2607V31.5829C84.4741 31.3257 84.4516 31.1425 84.4066 31.0332C84.368 30.924 84.2941 30.8693 84.1848 30.8693C84.0948 30.8693 83.9855 30.9015 83.857 30.9657H83.8473C83.8216 30.9657 83.8023 30.9497 83.7895 30.9175C83.783 30.879 83.7927 30.8565 83.8184 30.85L84.8888 30.3679L84.9177 30.3582C84.937 30.3582 84.9563 30.3679 84.9755 30.3872C85.0013 30.4 85.0141 30.4161 85.0141 30.4354V33.1354C85.0141 33.354 85.0398 33.5115 85.0913 33.6079C85.1427 33.7043 85.2295 33.7525 85.3516 33.7525C85.4609 33.7525 85.6313 33.7075 85.8627 33.6175H85.882ZM89.6925 34.0515C89.7053 34.0515 89.7118 34.0707 89.7118 34.1093C89.7118 34.1479 89.7053 34.1672 89.6925 34.1672C89.5446 34.1672 89.4289 34.164 89.3453 34.1575L88.8535 34.1479L88.3425 34.1575C88.2525 34.164 88.1271 34.1672 87.9664 34.1672C87.9535 34.1672 87.9471 34.1479 87.9471 34.1093C87.9471 34.0707 87.9535 34.0515 87.9664 34.0515C88.14 34.0515 88.2653 34.0354 88.3425 34.0032C88.426 33.9711 88.4807 33.91 88.5064 33.82C88.5385 33.73 88.5546 33.5854 88.5546 33.3861V32.335C88.3168 32.3479 88.1078 32.4315 87.9278 32.5857C87.7478 32.7336 87.555 33.0004 87.3493 33.3861C87.1564 33.7332 87.0278 33.9518 86.9635 34.0418C86.9057 34.1254 86.8446 34.1672 86.7803 34.1672H85.9414C85.9285 34.1672 85.9221 34.1479 85.9221 34.1093C85.9221 34.0707 85.9285 34.0515 85.9414 34.0515C86.1343 34.0515 86.2885 33.9904 86.4043 33.8682C86.5264 33.7397 86.6228 33.6047 86.6935 33.4632C86.7707 33.3218 86.8221 33.2318 86.8478 33.1932C86.97 32.9747 87.1178 32.7915 87.2914 32.6436C87.4714 32.4893 87.6675 32.3897 87.8796 32.3447C87.1018 32.2868 86.7128 31.9782 86.7128 31.419C86.7128 31.1104 86.8253 30.8661 87.0503 30.6861C87.2818 30.5061 87.5871 30.4161 87.9664 30.4161C88.0371 30.4161 88.1753 30.4225 88.381 30.4354C88.5546 30.4547 88.7121 30.4643 88.8535 30.4643L89.3357 30.4547C89.4193 30.4482 89.535 30.445 89.6828 30.445C89.6957 30.445 89.7021 30.4643 89.7021 30.5029C89.7021 30.5415 89.6957 30.5607 89.6828 30.5607C89.5157 30.5607 89.3903 30.58 89.3068 30.6186C89.2296 30.6507 89.175 30.7118 89.1428 30.8018C89.1107 30.8918 89.0946 31.0332 89.0946 31.2261V33.3861C89.0946 33.5725 89.1107 33.714 89.1428 33.8104C89.1814 33.9004 89.2393 33.9647 89.3164 34.0032C89.4 34.0354 89.5253 34.0515 89.6925 34.0515ZM87.2914 31.1972C87.2914 31.4993 87.3685 31.7468 87.5228 31.9397C87.6771 32.1261 87.8957 32.2193 88.1785 32.2193C88.3007 32.2193 88.426 32.2097 88.5546 32.1904V31.2454C88.5546 31.0397 88.5385 30.8886 88.5064 30.7922C88.4743 30.6957 88.4164 30.6282 88.3328 30.5897C88.2493 30.5511 88.1239 30.5318 87.9568 30.5318C87.7382 30.5318 87.571 30.5897 87.4553 30.7054C87.346 30.8211 87.2914 30.985 87.2914 31.1972Z" fill="white"/>
</svg>
