<svg width="158" height="158" viewBox="0 0 158 158" fill="none" xmlns="http://www.w3.org/2000/svg">
<circle cx="79" cy="79" r="75.84" stroke="#ECEAEA" stroke-width="6.32" stroke-dasharray="6.32 12.64"/>
<path d="M28.1955 113.639C29.6112 113.791 31.128 113.867 32.7459 113.867C36.3357 113.867 39.6221 113.133 42.6051 111.667C45.5882 110.201 47.9392 108.179 49.6582 105.6C51.3773 103.021 52.2368 100.089 52.2368 96.8026C52.2368 88.6624 48.4701 84.5924 40.9367 84.5924C39.2682 84.5924 37.3975 84.8452 35.3245 85.3508C33.3021 85.8058 31.5325 86.362 30.0157 87.0192L27.968 85.5783L31.6842 58.2759H53.2986L54.057 56.8349H58.759L57.3939 64.6464H37.2963L33.8077 82.3172C35.1728 81.6093 36.9171 80.9773 39.0407 80.4212C41.1642 79.865 43.2877 79.5869 45.4112 79.5869C50.265 79.5869 54.0823 80.952 56.8631 83.6823C59.6438 86.4125 61.0342 90.3815 61.0342 95.5892C61.0342 99.5834 59.8714 103.274 57.5456 106.662C55.2704 110.049 52.0346 112.754 47.8381 114.777C43.6416 116.799 38.8637 117.81 33.5043 117.81C31.3303 117.81 29.5607 117.633 28.1955 117.279V113.639ZM74.6665 88.8015C74.6665 92.2901 74.4642 95.2858 74.0598 97.7885C73.6553 100.266 73.1623 102.086 72.5809 103.249C72.2017 104.109 71.7087 104.753 71.102 105.183C70.4953 105.613 69.6105 105.828 68.4476 105.828C67.9926 105.828 67.3858 105.752 66.6274 105.6L66.3999 102.415C66.9814 102.541 67.8409 102.604 68.9785 102.604C70.0402 102.604 70.8871 101.201 71.5191 98.3952C72.1511 95.5892 72.4798 91.7719 72.505 86.9434L69.0543 86.4125V84.5544H88.3935V86.4504L85.0945 87.0192V103.401L88.2798 103.742V105.6H78.231V103.742L81.1887 103.401V86.8296H74.6665V88.8015ZM100.757 106.017C97.6983 106.017 95.3599 105.019 93.742 103.021C92.1494 101.024 91.3531 98.3573 91.3531 95.0204C91.3531 92.821 91.7702 90.8871 92.6044 89.2186C93.4387 87.5501 94.6015 86.2608 96.0931 85.3508C97.6099 84.4407 99.3289 83.9856 101.25 83.9856C103.601 83.9856 105.421 84.6429 106.711 85.9575C108.025 87.2468 108.72 89.1048 108.796 91.5317C108.796 93.0738 108.708 94.2493 108.531 95.0583H95.4863C95.5369 97.561 96.1183 99.5834 97.2307 101.125C98.343 102.642 99.923 103.401 101.971 103.401C102.982 103.401 104.031 103.224 105.118 102.87C106.23 102.491 107.09 102.048 107.697 101.543L108.417 103.211C107.684 103.969 106.597 104.627 105.156 105.183C103.715 105.739 102.249 106.017 100.757 106.017ZM104.625 93.0485C104.701 92.5176 104.739 91.9741 104.739 91.418C104.714 89.7748 104.36 88.4855 103.677 87.5501C103.02 86.5895 101.971 86.1092 100.53 86.1092C99.0635 86.1092 97.8879 86.64 97.0031 87.7018C96.1436 88.7636 95.6507 90.5458 95.5243 93.0485H104.625ZM132.57 84.5544L132.798 92.5556H130.295L129.271 86.8296L124.228 86.64V103.363L129.385 103.742V105.6H115.165V103.742L120.284 103.363V86.64L115.165 86.8296L114.141 92.5556H111.638L111.866 84.5544H132.57Z" fill="#ECEAEA"/>
</svg>
