<svg width="30" height="27" viewBox="0 0 30 27" fill="none" xmlns="http://www.w3.org/2000/svg">
<path d="M11.1718 8.29869C10.5137 8.18471 10.0406 7.90263 9.77859 7.43265C9.60662 7.13162 9.52248 6.7245 9.52248 6.21245H10.3136C10.3376 6.62041 10.4036 6.91859 10.5057 7.10648C10.6937 7.44354 11.0377 7.63261 11.5428 7.67451V5.23629C10.8957 5.11427 10.4177 4.91029 10.1078 4.62418C9.7987 4.33723 9.64467 3.94117 9.64467 3.43399C9.64467 2.98094 9.81077 2.57298 10.1426 2.20792C10.4767 1.84488 10.9418 1.65984 11.5408 1.6538V1.05996H11.9649V1.64509C12.5589 1.68716 13.014 1.86114 13.3311 2.1692C13.648 2.47727 13.8141 2.88322 13.83 3.3894H13.049C13.029 3.1633 12.967 2.96837 12.8649 2.80428C12.6769 2.50325 12.3789 2.34519 11.9669 2.33028V4.50853C12.658 4.70262 13.1281 4.88465 13.375 5.0536C13.7791 5.33367 13.9791 5.74867 13.9791 6.29676C13.9791 7.08989 13.7211 7.65289 13.206 7.98693C12.995 8.12387 12.688 8.21488 12.337 8.28293C13.3661 8.31796 14.3902 8.4839 15.3783 8.78191C16.3144 7.85083 16.8924 6.56275 16.8924 5.14059C16.8924 2.30128 14.5902 0 11.7508 0C8.91255 0 6.61127 2.30128 6.61127 5.14059C6.61127 6.60667 7.22841 7.92693 8.21345 8.86303C9.1715 8.54876 10.1676 8.3607 11.1718 8.29869Z" fill="#F2F2F2"/>
<path d="M10.7477 4.07424C10.9446 4.24118 11.2108 4.35733 11.5448 4.42321V2.32104C11.1498 2.33697 10.8697 2.45513 10.7038 2.67805C10.5368 2.90215 10.4527 3.13613 10.4527 3.38118C10.4527 3.67617 10.5526 3.90714 10.7477 4.07424Z" fill="#F2F2F2"/>
<path d="M13.1759 6.51545C13.1759 6.14235 13.0389 5.85942 12.7659 5.66533C12.6078 5.55236 12.3418 5.44526 11.9688 5.34436V7.69659C12.4788 7.67263 12.8298 7.48658 13.0259 7.13762C13.1259 6.95844 13.1759 6.75044 13.1759 6.51545Z" fill="#F2F2F2"/>
<path d="M29.3767 18.6397C30.0047 17.9867 30.0627 16.7715 29.9588 15.1484C29.2206 15.0984 28.1325 15.2215 27.7475 15.1484C26.8134 13.2893 25.4702 11.8381 23.5581 10.958C23.6221 9.74382 23.7871 8.6267 24.4902 8.04862C22.7821 7.93163 21.3388 9.08579 20.4168 10.1439C19.5906 9.28474 18.3656 8.60173 16.9265 8.12069L16.0304 9.71483C13.3661 8.79666 10.4398 8.80571 7.79056 9.74282L6.62115 8.17164C6.61813 8.16662 6.6131 8.16259 6.60908 8.15857C4.78197 8.76364 3.09866 9.71181 1.79366 11.0758C0.942702 11.011 1.04059 9.28575 2.1448 9.56281C0.34752 8.33875 -0.64255 11.694 1.09573 12.123C-0.353423 14.1922 -0.49036 18.6387 1.4457 20.2699C1.72879 22.7212 2.16273 25.0224 3.35393 26.5645H7.26628C7.16219 25.7703 7.05928 24.9222 7.14929 23.9952C9.52448 24.5342 12.3469 24.6923 15.1791 24.4613C15.6171 25.1874 16.0393 25.9255 16.5622 26.5655H20.4337C20.2917 25.5404 20.1387 24.4653 20.4168 23.4141C21.3408 23.2342 26.1383 22.0152 29.3767 18.6397ZM24.0321 13.4462C24.5631 13.4462 24.9952 13.8772 24.9952 14.4082C24.9952 14.9392 24.5631 15.3703 24.0321 15.3703C23.5021 15.3703 23.071 14.9392 23.071 14.4082C23.071 13.8772 23.502 13.4462 24.0321 13.4462Z" fill="#F2F2F2"/>
</svg>
