<svg width="70" height="70" viewBox="0 0 70 70" fill="none" xmlns="http://www.w3.org/2000/svg">
<path d="M2.83333 11.6667V11.1667H2.33333C1.8471 11.1667 1.38079 10.9735 1.03697 10.6297C0.693154 10.2859 0.5 9.81956 0.5 9.33333V2.33333C0.5 1.8471 0.693154 1.38079 1.03697 1.03697C1.38079 0.693154 1.8471 0.5 2.33333 0.5H67.6667C68.1529 0.5 68.6192 0.693155 68.963 1.03697C69.3068 1.38079 69.5 1.8471 69.5 2.33333V9.33333C69.5 9.81956 69.3068 10.2859 68.963 10.6297C68.6192 10.9735 68.1529 11.1667 67.6667 11.1667H67.1667V11.6667V58.3333V58.8333H67.6667C68.1529 58.8333 68.6192 59.0265 68.963 59.3703C69.3068 59.7141 69.5 60.1804 69.5 60.6667V67.6667C69.5 68.1529 69.3068 68.6192 68.963 68.963C68.6192 69.3068 68.1529 69.5 67.6667 69.5H2.33333C1.8471 69.5 1.38079 69.3068 1.03697 68.963C0.693155 68.6192 0.5 68.1529 0.5 67.6667V60.6667C0.5 60.1804 0.693155 59.7141 1.03697 59.3703C1.38079 59.0265 1.8471 58.8333 2.33333 58.8333H2.83333V58.3333V11.6667ZM4.66667 4.16667H4.16667V4.66667V7V7.5H4.66667H65.3333H65.8333V7V4.66667V4.16667H65.3333H4.66667ZM27.5 58.3333V58.8333H28H32.6667H33.1667V58.3333V11.6667V11.1667H32.6667H28H27.5V11.6667V58.3333ZM7 11.1667H6.5V11.6667V58.3333V58.8333H7H23.3333H23.8333V58.3333V11.6667V11.1667H23.3333H7ZM65.3333 65.8333H65.8333V65.3333V63V62.5H65.3333H4.66667H4.16667V63V65.3333V65.8333H4.66667H65.3333ZM63 58.8333H63.5V58.3333V11.6667V11.1667H63H37.3333H36.8333V11.6667V58.3333V58.8333H37.3333H63Z" fill="#77787B" stroke="#77787B"/>
<path d="M66.2964 42.963C65.9526 43.3068 65.4863 43.5 65 43.5C64.5138 43.5 64.0475 43.3068 63.7037 42.963C63.3598 42.6192 63.1667 42.1529 63.1667 41.6667V32.3333C63.1667 31.8471 63.3598 31.3808 63.7037 31.037C64.0475 30.6932 64.5138 30.5 65 30.5C65.4863 30.5 65.9526 30.6932 66.2964 31.037C66.6402 31.3808 66.8334 31.8471 66.8334 32.3333V41.6667C66.8334 42.1529 66.6402 42.6192 66.2964 42.963Z" fill="#77787B" stroke="#77787B"/>
</svg>
