<svg width="65" height="65" viewBox="0 0 65 65" fill="none" xmlns="http://www.w3.org/2000/svg">
<path d="M22.3024 13.1823C22.5049 13.3849 22.7704 13.4862 23.0358 13.4862C23.3012 13.4862 23.5668 13.3849 23.7692 13.1823L24.5927 12.3589L25.4161 13.1823C25.6185 13.3848 25.8841 13.4862 26.1495 13.4862C26.4149 13.4862 26.6804 13.3849 26.8829 13.1823C27.2879 12.7773 27.2879 12.1205 26.8829 11.7155L26.0594 10.8921L26.8829 10.0687C27.2879 9.66361 27.2879 9.00684 26.8829 8.6019C26.4779 8.19683 25.8212 8.19683 25.4161 8.6019L24.5927 9.42533L23.7692 8.6019C23.3642 8.19683 22.7074 8.19683 22.3024 8.6019C21.8974 9.00698 21.8974 9.66375 22.3024 10.0687L23.1259 10.8921L22.3024 11.7155C21.8972 12.1205 21.8972 12.7773 22.3024 13.1823Z" fill="#77787B"/>
<path d="M63.7089 56.6649H61.7185V1.03723C61.7185 0.464404 61.2541 0 60.6812 0H4.06485C3.49202 0 3.02762 0.464404 3.02762 1.03723V56.6649H1.03723C0.464404 56.6649 0 57.1293 0 57.7022V63.9628C0 64.5356 0.464404 65 1.03723 65H63.7089C64.2817 65 64.7461 64.5356 64.7461 63.9628V57.7022C64.7461 57.1293 64.2817 56.6649 63.7089 56.6649ZM5.10209 2.07447H59.644V56.6649H5.10209V2.07447ZM62.6716 62.9255H2.07447V58.7394H62.6716V62.9255Z" fill="#77787B"/>
<path d="M56.5323 4.14893H52.3834C51.8105 4.14893 51.3461 4.61333 51.3461 5.18616C51.3461 5.75899 51.8105 6.22339 52.3834 6.22339H55.4951V52.5161H35.4847V6.22339H48.2344C48.8073 6.22339 49.2717 5.75899 49.2717 5.18616C49.2717 4.61333 48.8073 4.14893 48.2344 4.14893H34.4475C33.8747 4.14893 33.4103 4.61333 33.4103 5.18616V53.5534C33.4103 54.1262 33.8747 54.5906 34.4475 54.5906H56.5323C57.1051 54.5906 57.5695 54.1262 57.5695 53.5534V5.18616C57.5695 4.61333 57.1051 4.14893 56.5323 4.14893Z" fill="#77787B"/>
<path d="M53.4204 26.6C53.4204 25.99 52.9241 25.4937 52.3141 25.4937C51.704 25.4937 51.2077 25.99 51.2077 26.6C51.2077 27.2101 51.704 27.7064 52.3141 27.7064C52.9241 27.7064 53.4204 27.2101 53.4204 26.6Z" fill="#77787B"/>
<path d="M44.7542 13.9458C45.3642 13.9458 45.8605 13.4494 45.8605 12.8394C45.8605 12.2294 45.3642 11.733 44.7542 11.733C44.1441 11.733 43.6478 12.2294 43.6478 12.8394C43.6478 13.4494 44.1441 13.9458 44.7542 13.9458Z" fill="#77787B"/>
<path d="M42.6797 38.9777C43.2897 38.9777 43.7861 38.4813 43.7861 37.8713C43.7861 37.2612 43.2897 36.7649 42.6797 36.7649C42.0697 36.7649 41.5733 37.2612 41.5733 37.8713C41.5733 38.4813 42.0697 38.9777 42.6797 38.9777Z" fill="#77787B"/>
<path d="M48.6265 43.265C48.6265 42.6549 48.1301 42.1586 47.5201 42.1586C46.9101 42.1586 46.4137 42.6549 46.4137 43.265C46.4137 43.875 46.9101 44.3714 47.5201 44.3714C48.1301 44.3714 48.6265 43.875 48.6265 43.265Z" fill="#77787B"/>
<path d="M19.2562 15.882C18.6462 15.882 18.1498 16.3783 18.1498 16.9883C18.1498 17.5984 18.6462 18.0947 19.2562 18.0947C19.8662 18.0947 20.3626 17.5984 20.3626 16.9883C20.3626 16.3783 19.8662 15.882 19.2562 15.882Z" fill="#77787B"/>
<path d="M15.7116 40.7756C15.1016 40.7756 14.6052 41.272 14.6052 41.882C14.6052 42.492 15.1016 42.9884 15.7116 42.9884C16.3216 42.9884 16.818 42.492 16.818 41.882C16.818 41.272 16.3218 40.7756 15.7116 40.7756Z" fill="#77787B"/>
<path d="M46.8286 50.4417C47.4387 50.4417 47.935 49.9453 47.935 49.3353C47.935 48.7252 47.4387 48.2289 46.8286 48.2289C46.2186 48.2289 45.7223 48.7252 45.7223 49.3353C45.7223 49.9453 46.2186 50.4417 46.8286 50.4417Z" fill="#77787B"/>
<path d="M44.6665 34.5376L45.4899 33.7141L46.3133 34.5376C46.5158 34.74 46.7813 34.8414 47.0467 34.8414C47.3121 34.8414 47.5776 34.7402 47.7801 34.5376C48.1852 34.1325 48.1852 33.4757 47.7801 33.0708L46.9567 32.2473L47.7801 31.4239C48.1852 31.0188 48.1852 30.3621 47.7801 29.9571C47.375 29.5521 46.7183 29.5521 46.3133 29.9571L45.4899 30.7806L44.6665 29.9571C44.2614 29.5521 43.6046 29.5521 43.1997 29.9571C42.7946 30.3622 42.7946 31.019 43.1997 31.4239L44.0231 32.2473L43.1997 33.0708C42.7946 33.4758 42.7946 34.1326 43.1997 34.5376C43.4021 34.74 43.6677 34.8414 43.9331 34.8414C44.1985 34.8414 44.4639 34.7402 44.6665 34.5376Z" fill="#77787B"/>
<path d="M37.863 23.4737C38.0655 23.6763 38.331 23.7775 38.5964 23.7775C38.8618 23.7775 39.1274 23.6763 39.3298 23.4737L40.1532 22.6503L40.9767 23.4737C41.1791 23.6762 41.4447 23.7775 41.7101 23.7775C41.9755 23.7775 42.241 23.6763 42.4435 23.4737C42.8485 23.0686 42.8485 22.4119 42.4435 22.0069L41.62 21.1835L42.4435 20.3601C42.8485 19.955 42.8485 19.2982 42.4435 18.8933C42.0385 18.4882 41.3817 18.4882 40.9767 18.8933L40.1532 19.7167L39.3298 18.8933C38.9248 18.4882 38.268 18.4882 37.863 18.8933C37.458 19.2984 37.458 19.9551 37.863 20.3601L38.6865 21.1835L37.863 22.0069C37.458 22.412 37.458 23.0688 37.863 23.4737Z" fill="#77787B"/>
<path d="M30.2986 4.14893H8.21378C7.64095 4.14893 7.17654 4.61333 7.17654 5.18616V43.9046C7.17654 44.4774 7.64095 44.9418 8.21378 44.9418C8.78661 44.9418 9.25101 44.4774 9.25101 43.9046V6.22339H29.2613V52.5161H9.25101V48.0535C9.25101 47.4807 8.78661 47.0163 8.21378 47.0163C7.64095 47.0163 7.17654 47.4807 7.17654 48.0535V53.5534C7.17654 54.1262 7.64095 54.5906 8.21378 54.5906H30.2986C30.8714 54.5906 31.3358 54.1262 31.3358 53.5534V5.18616C31.3358 4.61333 30.8714 4.14893 30.2986 4.14893Z" fill="#77787B"/>
<path d="M11.6293 27.6226C11.8318 27.8252 12.0973 27.9265 12.3627 27.9265C12.6281 27.9265 12.8937 27.8252 13.0961 27.6226L13.9195 26.7992L14.743 27.6226C14.9454 27.8251 15.211 27.9265 15.4764 27.9265C15.7418 27.9265 16.0073 27.8252 16.2098 27.6226C16.6148 27.2176 16.6148 26.5608 16.2098 26.1558L15.3863 25.3324L16.2098 24.509C16.6148 24.1039 16.6148 23.4471 16.2098 23.0422C15.8048 22.6371 15.148 22.6371 14.743 23.0422L13.9195 23.8656L13.0961 23.0422C12.691 22.6371 12.0343 22.6371 11.6293 23.0422C11.2243 23.4473 11.2243 24.1041 11.6293 24.509L12.4528 25.3324L11.6293 26.1558C11.2243 26.5609 11.2243 27.2177 11.6293 27.6226Z" fill="#77787B"/>
<path d="M20.813 32.1634L19.9896 31.3399C19.5845 30.9349 18.9277 30.9349 18.5228 31.3399C18.1177 31.745 18.1177 32.4018 18.5228 32.8067L19.3462 33.6302L18.5228 34.4536C18.1177 34.8587 18.1177 35.5154 18.5228 35.9204C18.7252 36.1228 18.9908 36.2242 19.2562 36.2242C19.5216 36.2242 19.7871 36.123 19.9896 35.9204L20.813 35.0969L21.6364 35.9204C21.8389 36.1228 22.1044 36.2242 22.3698 36.2242C22.6352 36.2242 22.9007 36.123 23.1032 35.9204C23.5083 35.5153 23.5083 34.8585 23.1032 34.4536L22.2798 33.6302L23.1032 32.8067C23.5083 32.4017 23.5083 31.7449 23.1032 31.3399C22.6981 30.9349 22.0413 30.9349 21.6364 31.3399L20.813 32.1634Z" fill="#77787B"/>
</svg>
