<svg width="300" height="302" viewBox="0 0 300 302" fill="none" xmlns="http://www.w3.org/2000/svg">
<path d="M150.124 0C109.056 0.562 73.8131 15.0477 44.3961 43.457C15.4923 72.9198 0.693607 108.252 0 149.455C0.42798 190.67 14.9479 226.088 43.5597 255.709C73.3252 284.695 108.663 299.46 149.572 300.002C190.643 299.525 225.919 285.106 255.402 256.746C284.367 227.33 299.233 192.02 300 150.817C299.644 109.603 285.191 74.1629 256.643 44.4956C226.94 15.4593 191.637 0.627847 150.734 0.0012207L150.124 0Z" fill="#E9EDE7"/>
<path d="M203.686 65.7356C203.581 65.7356 203.475 65.7361 203.369 65.7371C203.242 65.7382 203.115 65.7401 202.988 65.7427C202.919 65.744 202.851 65.7454 202.783 65.7468C201.131 65.7815 200.046 65.8697 198.258 66.1066C197.561 66.1962 194.157 66.883 193.701 67.023C193.566 67.0639 193.11 67.2039 192.678 67.327C188.13 68.6827 184.038 71.12 181.139 74.1959C179.543 75.8867 178.139 77.9591 177.193 80.0292C175.954 82.7252 175.324 85.7175 175.374 88.6989C175.402 90.5787 175.693 91.7016 176.438 92.7999L176.659 93.1299L176.408 93.7406C175.993 94.7488 175.365 96.0725 174.157 98.4924C172.22 102.373 171.586 103.796 171.219 105.108C170.927 106.158 170.914 106.78 171.164 107.241C171.472 107.81 172.041 108.133 173.373 108.483C173.901 108.621 174.145 108.671 174.396 108.671C174.402 108.671 174.408 108.671 174.414 108.671C174.421 108.671 174.429 108.671 174.437 108.671C174.491 108.67 174.546 108.666 174.604 108.661C174.825 108.644 175.023 108.633 175.2 108.629C175.226 108.629 175.252 108.629 175.278 108.628C175.297 108.628 175.316 108.628 175.335 108.628C175.981 108.628 176.331 108.736 176.566 108.983C176.781 109.206 176.825 109.511 176.76 110.236C176.727 110.582 176.704 110.976 176.718 111.117C176.734 111.451 176.657 111.755 176.401 112.315C176.087 113.003 176.037 113.243 176.12 113.598C176.244 114.115 176.59 114.412 177.618 114.892C177.841 114.993 178.045 115.114 178.071 115.154C178.157 115.285 178.045 115.584 177.682 116.208C177.338 116.811 177.246 117.072 177.302 117.323C177.347 117.531 177.434 117.615 178.216 118.201C179.142 118.898 179.529 119.358 179.702 119.962C179.816 120.379 179.817 120.413 179.648 121.969C179.4 124.219 179.438 125.076 179.821 125.829C180.294 126.758 181.658 127.755 182.92 128.098C183.498 128.252 183.89 128.316 184.555 128.342L185.076 128.366L189.814 127.358L194.546 126.346L194.812 126.54C195.161 126.802 195.844 127.667 196.284 128.419C196.561 128.89 196.855 129.45 197.16 130.091L197.153 130.092C196.976 130.184 196.801 130.274 196.629 130.363L196.636 130.363C196.703 130.467 196.769 130.568 196.835 130.665C198.544 133.086 198.546 133.147 197.414 134.829C193.961 140.061 192.672 145.985 192.811 155.503C192.961 162.686 192.515 164.845 190.301 167.656C189.345 168.904 187.373 174.474 186.18 179.105C185.159 183.12 184.436 189.645 184.176 197.759C184.111 200.524 183.859 203.17 183.621 203.544C183.323 203.98 183.078 206.934 182.961 210.13L182.715 215.971L177.308 215.9C177 215.896 176.702 215.894 176.416 215.894C176.24 215.894 176.068 215.895 175.901 215.896C175.713 215.898 175.53 215.901 175.353 215.904C172.923 215.955 171.482 216.192 170.997 216.646C170.514 217.025 168.435 217.499 166.352 217.726C165.823 217.762 165.353 217.789 164.922 217.798C164.861 217.799 164.801 217.8 164.742 217.8C164.7 217.801 164.657 217.801 164.615 217.801C162.004 217.801 160.688 217.015 155.324 213.228C154.138 212.331 151.906 211.334 150.361 210.875C148.817 210.477 147.207 209.836 146.832 209.536C146.583 209.367 145.977 209.284 145.242 209.284C145.211 209.284 145.179 209.284 145.148 209.284C145.107 209.285 145.066 209.285 145.025 209.286C144.525 209.297 143.979 209.343 143.451 209.423C141.983 209.699 138.919 210.071 136.529 210.305C132.484 210.758 130.112 211.853 130.143 213.326C130.149 213.633 129.377 214.877 128.357 216.066C127.398 217.192 126.57 218.683 126.582 219.297C126.619 221.024 125.681 221.7 122.599 221.765C122.51 221.767 122.42 221.768 122.328 221.769C122.248 221.77 122.165 221.77 122.082 221.77C121.45 221.77 120.738 221.749 119.938 221.709C117.171 221.583 112.682 221.308 109.915 221.182C107.087 221.057 104.499 220.681 104.124 220.382C103.995 220.276 103.851 220.224 103.693 220.224H103.686C103.684 220.224 103.681 220.224 103.678 220.224C103.306 220.232 102.859 220.529 102.358 221.095C101.704 221.863 101.016 222.263 100.099 222.282C100.086 222.283 100.073 222.283 100.06 222.283C100.05 222.283 100.039 222.283 100.029 222.283C98.9388 222.283 97.5251 221.758 95.4701 220.686C93.7114 219.753 92.8921 219.329 92.2767 219.329C92.2725 219.329 92.2684 219.329 92.2643 219.329C92.2592 219.329 92.2542 219.329 92.2491 219.329C91.7484 219.34 91.378 219.636 90.7297 220.172C89.7806 220.95 89.1518 221.315 88.4971 221.329C88.4899 221.329 88.4827 221.329 88.4755 221.329C88.4698 221.329 88.4641 221.329 88.4584 221.329C87.9588 221.329 87.4401 221.126 86.7492 220.747C86.3731 220.507 86.0449 220.368 85.6863 220.368C85.682 220.368 85.6778 220.368 85.6735 220.368C85.668 220.368 85.6626 220.368 85.6571 220.368C84.7749 220.387 83.6983 221.244 81.2789 223.502C79.2326 225.511 78.8184 226.257 78.8595 228.221C78.8981 230.063 79.3472 230.975 80.9757 232.476L83.0429 234.399L114.539 233.738C118.345 233.667 121.704 233.602 124.67 233.539C143.188 233.151 146.394 232.891 147.49 232.126C149.246 230.923 149.285 229.877 147.658 228.437C146.97 227.838 146.402 227.112 146.395 226.805C146.388 226.44 146.584 226.263 146.924 226.256C146.928 226.255 146.932 226.255 146.936 226.255C146.939 226.255 146.942 226.255 146.946 226.255C147.695 226.255 149.116 227.049 150.606 228.437C153.236 230.839 155.595 232.018 159.044 232.437C161.814 232.747 162.632 233.652 162.122 235.689C161.334 239.146 161.458 239.204 165.76 239.298C169.262 239.348 169.942 239.579 170.209 240.556C170.405 241.279 171.074 241.752 171.74 241.752C171.744 241.752 171.749 241.752 171.753 241.752C171.758 241.752 171.764 241.752 171.769 241.752C171.782 241.752 171.795 241.752 171.807 241.751C171.818 241.751 171.828 241.751 171.838 241.751C172.548 241.751 173.193 241.978 173.377 242.271C173.821 242.938 169.882 245.477 168.47 245.507C167.917 245.518 166.343 246.595 164.895 247.854C159.41 252.822 157.537 254.335 157.046 254.346C156.739 254.352 155.652 255.235 154.567 256.24C152.701 258.061 152.519 258.126 146.072 258.261C142.45 258.337 138.648 258.662 137.612 259.053C136.575 259.381 131.622 260.468 126.545 261.434C109.538 264.739 104.65 265.947 101.187 267.801C98.5156 269.27 97.4362 270.521 95.793 274.179C94.7368 276.535 94.5796 277.829 94.8972 281.262C95.4559 287.392 95.9765 288.794 98.9905 291.925C99.0719 292.01 99.1525 292.095 99.2323 292.18H99.2349C113.636 297.351 128.927 300.253 145.107 300.885C144.95 300.194 145.033 299.854 145.356 299.845L145.363 299.845L145.365 299.845H145.369C145.717 299.845 146.331 300.213 147.212 300.926C147.224 300.936 147.237 300.946 147.249 300.956H147.252C148.023 300.976 148.797 300.992 149.572 301.002C190.643 300.525 225.919 286.106 255.402 257.746C255.498 257.649 255.593 257.552 255.688 257.455H255.693C255.219 255.243 255.051 253.628 255.23 252.84C255.654 251.105 258.157 248.193 259.134 248.173C259.136 248.173 259.138 248.173 259.14 248.173H259.145C259.206 248.173 259.262 248.185 259.31 248.209C259.622 248.448 259.882 249.119 259.895 249.733C259.902 250.089 260.435 250.823 261.161 251.612H261.161C264.59 247.778 267.792 243.849 270.767 239.826H270.772C271.097 237.787 271.565 234.699 271.826 232.898C272.095 231.05 272.583 227.968 272.851 226.12C273.12 224.272 273.603 220.945 273.863 218.728C274.185 216.51 274.744 213.857 275.153 212.866C275.309 212.495 275.437 212.27 275.547 212.268H275.549C275.935 212.268 276.099 215.021 276.429 223.895C276.507 226.57 276.623 229.046 276.753 231.125C278.619 228.201 280.373 225.23 282.015 222.212H282.019C282.064 218.718 282.325 215.643 282.797 214.18C283.897 210.963 283.791 202.98 282.728 202.081C282.29 201.722 281.116 201.378 280.07 201.277C278.347 201.128 278.222 201.008 278.295 198.673C278.39 197.319 278.83 194.853 279.408 193.121C281.076 187.742 280.175 182.847 277.398 182.23C277.162 182.171 276.884 182.143 276.573 182.143C276.557 182.143 276.541 182.144 276.524 182.144C276.503 182.144 276.481 182.144 276.46 182.145C274.071 182.195 269.943 183.785 268.373 185.368C267.513 186.211 266.69 186.751 266.301 186.759H266.292C266.222 186.759 266.167 186.741 266.128 186.705C265.878 186.464 265.715 184.563 265.733 182.475C265.778 178.788 263.376 166.738 261.757 162.779C260.785 160.343 257.551 155.497 254.97 152.541C253.837 151.214 252.888 149.882 252.881 149.575C252.842 147.733 243.859 138.217 239.439 135.361C238.753 134.884 238.003 134.286 237.815 134.105C237.627 133.925 236.503 133.027 235.255 132.132C233.509 130.879 232.875 129.909 232.529 128.074C232.317 126.727 231.293 124.783 230.349 123.697C229.302 122.531 228.405 121.386 227.733 120.39L227.725 120.391C226.976 118.483 226.837 118.113 226.468 117.088C226.264 116.52 226.032 115.882 225.954 115.682C225.544 114.568 224.841 112.296 224.473 110.904C223.992 109.043 223.994 107.793 224.482 105.857C224.818 104.511 225.11 103.697 226.134 101.197C227.597 97.6383 227.769 97.0386 228.085 94.5505C228.615 90.3933 228.412 86.5053 227.489 82.8893C226.475 78.9321 224.552 75.4372 221.886 72.7073C217.452 68.1682 211.102 65.7356 203.686 65.7356ZM133.341 218.493C133.741 218.493 133.951 219.165 133.978 220.493C134.009 221.976 133.32 222.878 132.252 222.9C132.245 222.9 132.237 222.9 132.23 222.9C132.224 222.9 132.218 222.9 132.212 222.9C131.92 222.9 131.601 222.836 131.261 222.7C130.519 222.47 130.571 222.039 131.702 220.296C132.416 219.097 132.958 218.501 133.334 218.493H133.341ZM138.831 221.559C139.44 221.559 140.22 221.846 140.649 222.258C141.715 223.28 141.632 225.186 140.527 225.209L140.522 225.209H140.518C140.026 225.209 139.216 224.37 138.646 223.405C137.689 221.706 137.748 221.581 138.792 221.56C138.799 221.559 138.806 221.559 138.813 221.559C138.819 221.559 138.825 221.559 138.831 221.559Z" fill="#2D2D2D"/>
<path d="M51.3682 108.45L33.8826 108.486L33.8802 108.486L34.483 206.69L40.6568 206.62L40.6425 216.855L24.9958 216.831L24.94 216.831L24.9343 233.697H24.9362C28.5155 239.067 32.48 244.28 36.8297 249.333C42.1496 249.322 47.2481 249.316 51.7681 249.316C61.8202 249.316 69.0117 249.346 69.4177 249.419H69.4178C69.674 249.419 69.9351 261.396 70.1072 277.863H70.1095C70.1095 277.863 70.1095 277.863 70.1095 277.863H70.1072C70.1086 277.994 70.1099 278.125 70.1113 278.256L70.1293 278.256C71.7643 279.166 73.4116 280.044 75.0713 280.89H75.0714C75.0768 280.893 75.0822 280.896 75.0877 280.899H75.0901C77.1992 281.973 79.3284 282.995 81.4776 283.964L81.478 283.964C81.5012 263.635 81.7348 249.665 82.0215 249.434C82.2166 249.316 88.9118 249.197 98.9673 249.103C105.364 249.043 113.122 248.994 121.43 248.962C127.488 248.939 133.242 248.901 138.381 248.853C151.37 248.732 160.428 248.546 160.518 248.362C160.709 248.042 162.114 247.269 163.583 246.56C166.648 245.204 167.157 244.371 167.143 240.852C167.136 238.933 166.684 238.038 164.694 236.127L162.253 233.769L61.4167 234.159L61.4412 216.886L45.5994 216.862L45.6157 206.565L51.9645 206.494L51.3682 108.45Z" fill="#2D2D2D"/>
<path d="M206.649 89.6356C204.612 89.3643 202.747 89.8334 201.054 91.0431C199.397 92.31 198.403 93.97 198.071 96.0229C197.805 98.0931 198.273 99.9609 199.475 101.626C200.732 103.277 202.39 104.271 204.45 104.61C206.487 104.886 208.354 104.421 210.05 103.215C211.71 101.951 212.707 100.293 213.043 98.2413C213.32 96.1801 212.85 94.303 211.633 92.6102C210.373 90.9616 208.712 89.9702 206.651 89.6359" fill="white"/>
<path d="M197.959 66.153C196.884 66.3335 194.11 66.8977 193.701 67.0231C193.566 67.064 193.11 67.204 192.678 67.3271C192.64 67.3384 192.602 67.3499 192.564 67.3614L192.568 67.3613L202.846 93.2268L209.027 92.5669L197.963 66.1528L197.959 66.153Z" fill="white"/>
<path d="M202.136 99.4067C201.203 100.577 196.797 104.782 188.92 112.022C188.649 112.37 188.662 112.706 188.961 113.03C189.261 113.266 189.571 113.266 189.891 113.03C196.799 106.672 200.859 102.835 202.072 101.52L203.166 100.357L202.151 99.421" fill="white"/>
<path d="M188.468 111.236C187.99 111.187 187.562 111.306 187.184 111.595C186.811 111.899 186.593 112.285 186.53 112.754C186.479 113.227 186.598 113.654 186.885 114.035C187.188 114.41 187.574 114.629 188.043 114.692C188.521 114.745 188.949 114.627 189.328 114.339C189.703 114.037 189.922 113.651 189.987 113.182C190.038 112.702 189.92 112.273 189.633 111.895C189.33 111.52 188.944 111.301 188.474 111.237" fill="white"/>
<path d="M205.958 94.4953C205.234 94.3966 204.576 94.5587 203.983 94.9818C203.4 95.4285 203.049 96.0072 202.931 96.7179C202.83 97.4423 202.991 98.1027 203.415 98.6989C203.854 99.2787 204.433 99.6299 205.153 99.7527C205.878 99.8522 206.537 99.6913 207.13 99.2699C207.715 98.8241 208.067 98.2458 208.186 97.5349C208.288 96.8108 208.127 96.1505 207.705 95.554C207.267 94.9731 206.688 94.6207 205.969 94.4968" fill="#060000"/>
</svg>
