<svg width="41" height="41" viewBox="0 0 41 41" fill="none" xmlns="http://www.w3.org/2000/svg">
<path d="M36.6888 18.7603L39.7326 17.2374C40.0722 17.0676 40.1015 16.7421 39.7977 16.5143L36.6238 14.1331C36.3201 13.9054 36.0716 14.0295 36.0716 14.4091V18.379C36.0716 18.7587 36.3492 18.9303 36.6888 18.7603Z" fill="#599B47"/>
<path d="M1.26713 17.2372L4.31149 18.7603C4.65094 18.9301 4.92883 18.7585 4.92883 18.3789V14.4086C4.92883 14.029 4.68035 13.9049 4.37664 14.1325L1.20197 16.5143C0.89827 16.7419 0.927675 17.0674 1.26713 17.2372Z" fill="#599B47"/>
<path d="M33.9361 20.1373V9.29484C33.9361 8.53737 33.322 7.92334 32.565 7.92334H8.43496C7.67791 7.92334 7.0636 8.53724 7.0636 9.29484V20.1373L20.5 26.8597L33.9361 20.1373ZM15.5897 14.4457H25.4108C26.0419 14.4457 26.5536 14.9574 26.5536 15.5884C26.5536 16.2196 26.0419 16.7313 25.4108 16.7313H15.5897C14.9585 16.7313 14.4468 16.2196 14.4468 15.5884C14.4466 14.9574 14.9584 14.4457 15.5897 14.4457ZM14.4466 20.5C14.4466 19.8688 14.9584 19.3571 15.5895 19.3571H25.4106C26.0418 19.3571 26.5535 19.8688 26.5535 20.5C26.5535 21.1311 26.0418 21.6427 25.4106 21.6427H15.5897C14.9584 21.6427 14.4466 21.1311 14.4466 20.5Z" fill="#599B47"/>
<path d="M11.227 24.7756L0.617347 19.4674C0.277889 19.2976 0 19.4692 0 19.8488V36.2447C0 36.6243 0.268364 36.6612 0.536865 36.3926L11.3563 25.5726C11.6247 25.3042 11.5664 24.9455 11.227 24.7756Z" fill="#599B47"/>
<path d="M40.3826 19.4679L29.773 24.7761C29.4336 24.9459 29.3753 25.3045 29.6437 25.573L40.4629 36.3929C40.7312 36.6614 41 36.6247 41 36.245V19.8492C41 19.4697 40.7221 19.2981 40.3826 19.4679Z" fill="#599B47"/>
<path d="M21.3337 2.66252C20.84 2.29283 20.1597 2.29283 19.6663 2.66252L15.568 5.73697H25.4316L21.3337 2.66252Z" fill="#599B47"/>
<path d="M27.5458 26.7075C27.2774 26.439 26.7252 26.296 26.3832 26.4608L21.1216 28.998C20.7797 29.1628 20.2202 29.1628 19.8781 28.998L14.6168 26.4608C14.2748 26.296 13.7226 26.439 13.4542 26.7075L2.15326 38.009C1.8849 38.2775 1.83534 38.6152 2.21497 38.6152H38.785C39.1647 38.6152 39.115 38.2777 38.8465 38.009L27.5458 26.7075Z" fill="#599B47"/>
</svg>
