<svg width="270" height="110" viewBox="0 0 270 110" fill="none" xmlns="http://www.w3.org/2000/svg">
<rect width="270" height="110" fill="#599B47"/>
<path d="M64.0803 22.4554H73.3125V82.8839H64.0803V22.4554Z" stroke="#E9EDE7" stroke-width="2.51786"/>
<path d="M42.2589 82.8166V23.0875L64.0804 18.5478V91.5177L42.2589 82.8166Z" stroke="#E5E5E5" stroke-width="2.51786"/>
<path d="M95.134 82.8166V23.0875L73.3125 18.5478V91.5177L95.134 82.8166Z" stroke="#E5E5E5" stroke-width="2.51786"/>
<circle cx="77.9286" cy="52.25" r="1.67857" fill="#E5E5E5"/>
<circle cx="59.4643" cy="52.25" r="1.67857" fill="#E5E5E5"/>
<path d="M121.55 73.4834C119.052 73.4834 116.823 72.906 114.862 71.7511C112.929 70.5694 111.425 68.9849 110.35 66.9974C109.303 64.9831 108.779 62.7943 108.779 60.4309C108.779 57.6646 109.478 55.3011 110.874 53.3406C112.271 51.3531 114.057 49.8626 116.232 48.8689C118.434 47.8751 120.677 47.3783 122.96 47.3783C125.511 47.3783 127.754 47.9826 129.688 49.1911C131.621 50.3729 133.098 51.944 134.119 53.9046C135.166 55.8651 135.69 57.9466 135.69 60.1489C135.69 62.5929 135.046 64.8354 133.756 66.8766C132.467 68.9177 130.735 70.5291 128.56 71.7109C126.411 72.8926 124.074 73.4834 121.55 73.4834ZM122.96 72.5971C124.679 72.5971 126.223 72.154 127.593 71.2677C128.962 70.3814 130.037 69.0923 130.816 67.4003C131.621 65.6814 132.024 63.6403 132.024 61.2769C132.024 58.7791 131.581 56.55 130.695 54.5894C129.835 52.6289 128.586 51.098 126.948 49.9969C125.337 48.8957 123.457 48.3451 121.308 48.3451C118.515 48.3451 116.34 49.2986 114.782 51.2054C113.224 53.0854 112.445 55.6906 112.445 59.0209C112.445 61.5723 112.888 63.882 113.775 65.95C114.661 68.018 115.896 69.6429 117.481 70.8246C119.092 72.0063 120.919 72.5971 122.96 72.5971ZM151.608 72.6374C151.668 72.6374 151.699 72.6979 151.699 72.8187C151.699 72.9396 151.668 73 151.608 73H148.224C148.063 73 147.942 72.9698 147.861 72.9094C147.801 72.8489 147.61 72.577 147.287 72.0936C146.965 71.59 146.502 70.9253 145.898 70.0994C145.152 69.052 144.639 68.3671 144.357 68.0449C144.095 67.7226 143.813 67.501 143.511 67.3801C143.229 67.2593 142.806 67.2089 142.242 67.2291V70.5526C142.242 71.1569 142.282 71.6101 142.362 71.9123C142.463 72.1943 142.634 72.3856 142.876 72.4864C143.138 72.5871 143.541 72.6374 144.085 72.6374C144.125 72.6374 144.145 72.6979 144.145 72.8187C144.145 72.9396 144.125 73 144.085 73C143.541 73 143.128 72.9899 142.846 72.9698L141.275 72.9396L139.613 72.9698C139.311 72.9899 138.888 73 138.344 73C138.284 73 138.253 72.9396 138.253 72.8187C138.253 72.6979 138.284 72.6374 138.344 72.6374C138.888 72.6374 139.281 72.5871 139.522 72.4864C139.784 72.3856 139.955 72.1943 140.036 71.9123C140.137 71.6303 140.187 71.1771 140.187 70.5526V55.0225C140.187 54.2974 140.117 53.7837 139.976 53.4816C139.855 53.1593 139.623 52.9981 139.281 52.9981C138.918 52.9981 138.475 53.1291 137.951 53.3909H137.891C137.83 53.3909 137.78 53.3406 137.74 53.2399C137.699 53.1391 137.709 53.0787 137.77 53.0586L141.758 51.1249L141.909 51.0946C141.99 51.0946 142.06 51.1249 142.121 51.1853C142.201 51.2457 142.242 51.3162 142.242 51.3968V66.6852L143.994 66.6248C144.477 66.6248 144.961 66.1212 145.444 65.1141C146.23 63.5631 146.864 62.5056 147.348 61.9416C147.831 61.3574 148.415 61.0654 149.1 61.0654C149.584 61.0654 149.956 61.1761 150.218 61.3977C150.48 61.6193 150.611 61.9013 150.611 62.2437C150.611 62.6063 150.49 62.9084 150.248 63.1501C150.027 63.3919 149.715 63.5127 149.312 63.5127C149.03 63.5127 148.748 63.4321 148.466 63.271C148.224 63.1501 148.023 63.0897 147.861 63.0897C147.378 63.0897 146.744 63.8249 145.958 65.2954C145.636 65.9601 145.323 66.4234 145.021 66.6852C145.525 66.7859 145.938 66.9974 146.26 67.3197C146.603 67.642 147.197 68.3671 148.043 69.4951C148.284 69.8174 148.536 70.18 148.798 70.5829C149.342 71.3483 149.785 71.8821 150.128 72.1842C150.49 72.4662 150.984 72.6173 151.608 72.6374ZM158.262 73.3928C157.073 73.3928 156.026 73.1108 155.119 72.5468C154.213 71.9626 153.508 71.1871 153.004 70.2203C152.521 69.2333 152.279 68.1657 152.279 67.0176C152.279 65.7083 152.602 64.6004 153.246 63.694C153.891 62.7674 154.717 62.0826 155.724 61.6394C156.731 61.1761 157.758 60.9445 158.806 60.9445C159.994 60.9445 161.041 61.2366 161.948 61.8207C162.854 62.4049 163.549 63.1804 164.033 64.1472C164.516 65.0939 164.758 66.1011 164.758 67.1686C164.758 68.3974 164.456 69.4851 163.851 70.4318C163.267 71.3785 162.482 72.1137 161.495 72.6374C160.508 73.141 159.43 73.3928 158.262 73.3928ZM159.138 72.8187C160.145 72.8187 160.921 72.4259 161.464 71.6404C162.008 70.8548 162.28 69.6764 162.28 68.1053C162.28 66.796 162.079 65.6479 161.676 64.6609C161.293 63.6537 160.759 62.8883 160.075 62.3646C159.39 61.8207 158.624 61.5488 157.778 61.5488C156.791 61.5488 156.026 61.9315 155.482 62.6969C154.958 63.4422 154.696 64.5501 154.696 66.0205C154.696 67.2895 154.888 68.4477 155.271 69.4951C155.653 70.5224 156.177 71.3382 156.842 71.9425C157.527 72.5266 158.292 72.8187 159.138 72.8187ZM180.633 72.6374C180.673 72.6374 180.694 72.6979 180.694 72.8187C180.694 72.9396 180.673 73 180.633 73C180.089 73 179.666 72.9899 179.364 72.9698L177.793 72.9396L176.131 72.9698C175.829 72.9899 175.416 73 174.892 73C174.832 73 174.802 72.9396 174.802 72.8187C174.802 72.6979 174.832 72.6374 174.892 72.6374C175.436 72.6374 175.829 72.5871 176.071 72.4864C176.333 72.3856 176.504 72.1943 176.584 71.9123C176.685 71.6101 176.735 71.1569 176.735 70.5526V67.4708H170.662V70.5526C170.662 71.1569 170.703 71.6101 170.783 71.9123C170.884 72.1943 171.055 72.3856 171.297 72.4864C171.559 72.5871 171.962 72.6374 172.505 72.6374C172.546 72.6374 172.566 72.6979 172.566 72.8187C172.566 72.9396 172.546 73 172.505 73C171.962 73 171.539 72.9899 171.236 72.9698L169.665 72.9396L168.034 72.9698C167.732 72.9899 167.309 73 166.765 73C166.704 73 166.674 72.9396 166.674 72.8187C166.674 72.6979 166.704 72.6374 166.765 72.6374C167.309 72.6374 167.701 72.5871 167.943 72.4864C168.205 72.3856 168.376 72.1943 168.457 71.9123C168.557 71.6101 168.608 71.1569 168.608 70.5526V64.9932C168.608 64.2278 168.537 63.6839 168.396 63.3616C168.255 63.0192 168.024 62.848 167.701 62.848C167.5 62.848 167.188 62.9286 166.765 63.0897H166.704C166.644 63.0897 166.594 63.0394 166.553 62.9386C166.533 62.8379 166.553 62.7775 166.614 62.7574L170.179 61.0956L170.3 61.0654C170.38 61.0654 170.461 61.0956 170.542 61.156C170.622 61.2164 170.662 61.2869 170.662 61.3675V66.8665H176.735V64.9932C176.735 64.2278 176.665 63.6839 176.524 63.3616C176.383 63.0192 176.151 62.848 175.829 62.848C175.628 62.848 175.315 62.9286 174.892 63.0897H174.832C174.772 63.0897 174.721 63.0394 174.681 62.9386C174.661 62.8379 174.681 62.7775 174.741 62.7574L178.307 61.0956L178.427 61.0654C178.508 61.0654 178.589 61.0956 178.669 61.156C178.75 61.2164 178.79 61.2869 178.79 61.3675V70.5526C178.79 71.1569 178.83 71.6101 178.911 71.9123C179.012 72.1943 179.183 72.3856 179.425 72.4864C179.686 72.5871 180.089 72.6374 180.633 72.6374ZM196.212 72.6374C196.253 72.6374 196.273 72.6979 196.273 72.8187C196.273 72.9396 196.253 73 196.212 73C195.668 73 195.245 72.9899 194.943 72.9698L193.372 72.9396L191.71 72.9698C191.408 72.9899 190.995 73 190.472 73C190.411 73 190.381 72.9396 190.381 72.8187C190.381 72.6979 190.411 72.6374 190.472 72.6374C191.015 72.6374 191.408 72.5871 191.65 72.4864C191.912 72.3856 192.083 72.1943 192.164 71.9123C192.264 71.6101 192.315 71.1569 192.315 70.5526V67.4708H186.242V70.5526C186.242 71.1569 186.282 71.6101 186.362 71.9123C186.463 72.1943 186.634 72.3856 186.876 72.4864C187.138 72.5871 187.541 72.6374 188.085 72.6374C188.125 72.6374 188.145 72.6979 188.145 72.8187C188.145 72.9396 188.125 73 188.085 73C187.541 73 187.118 72.9899 186.816 72.9698L185.245 72.9396L183.613 72.9698C183.311 72.9899 182.888 73 182.344 73C182.284 73 182.253 72.9396 182.253 72.8187C182.253 72.6979 182.284 72.6374 182.344 72.6374C182.888 72.6374 183.281 72.5871 183.522 72.4864C183.784 72.3856 183.955 72.1943 184.036 71.9123C184.137 71.6101 184.187 71.1569 184.187 70.5526V64.9932C184.187 64.2278 184.117 63.6839 183.976 63.3616C183.835 63.0192 183.603 62.848 183.281 62.848C183.079 62.848 182.767 62.9286 182.344 63.0897H182.284C182.223 63.0897 182.173 63.0394 182.132 62.9386C182.112 62.8379 182.132 62.7775 182.193 62.7574L185.758 61.0956L185.879 61.0654C185.96 61.0654 186.04 61.0956 186.121 61.156C186.201 61.2164 186.242 61.2869 186.242 61.3675V66.8665H192.315V64.9932C192.315 64.2278 192.244 63.6839 192.103 63.3616C191.962 63.0192 191.731 62.848 191.408 62.848C191.207 62.848 190.895 62.9286 190.472 63.0897H190.411C190.351 63.0897 190.3 63.0394 190.26 62.9386C190.24 62.8379 190.26 62.7775 190.321 62.7574L193.886 61.0956L194.007 61.0654C194.087 61.0654 194.168 61.0956 194.248 61.156C194.329 61.2164 194.369 61.2869 194.369 61.3675V70.5526C194.369 71.1569 194.41 71.6101 194.49 71.9123C194.591 72.1943 194.762 72.3856 195.004 72.4864C195.266 72.5871 195.668 72.6374 196.212 72.6374ZM204.087 66.1414C205.537 66.1414 206.615 66.4133 207.32 66.9571C208.025 67.501 208.377 68.3269 208.377 69.4347C208.377 70.6634 207.954 71.6303 207.108 72.3353C206.262 73.0403 205.013 73.3928 203.362 73.3928C202.012 73.3928 200.985 73.1511 200.28 72.6676C199.575 72.1641 199.222 71.4289 199.222 70.462V64.9932C199.222 64.2278 199.152 63.6839 199.011 63.3616C198.87 63.0192 198.638 62.848 198.316 62.848C198.115 62.848 197.802 62.9286 197.379 63.0897H197.319C197.258 63.0897 197.208 63.0394 197.168 62.9386C197.148 62.8379 197.168 62.7775 197.228 62.7574L200.794 61.0956L200.914 61.0654C200.995 61.0654 201.076 61.0956 201.156 61.156C201.237 61.2164 201.277 61.2869 201.277 61.3675V66.5039C202.083 66.2622 203.019 66.1414 204.087 66.1414ZM215.568 72.6374C215.629 72.6374 215.659 72.6979 215.659 72.8187C215.659 72.9396 215.629 73 215.568 73C215.085 73 214.692 72.9899 214.39 72.9698L212.728 72.9396L211.066 72.9698C210.764 72.9899 210.371 73 209.888 73C209.828 73 209.797 72.9396 209.797 72.8187C209.797 72.6979 209.828 72.6374 209.888 72.6374C210.613 72.6374 211.097 72.5065 211.338 72.2446C211.58 71.9626 211.701 71.3986 211.701 70.5526V64.9932C211.701 64.2681 211.63 63.7544 211.489 63.4523C211.348 63.13 211.097 62.9689 210.734 62.9689C210.392 62.9689 209.959 63.0998 209.435 63.3616H209.405C209.324 63.3616 209.264 63.3113 209.223 63.2106C209.183 63.0897 209.203 63.0192 209.284 62.9991L213.393 61.0956L213.514 61.0654C213.574 61.0654 213.635 61.0956 213.695 61.156C213.776 61.2164 213.816 61.2869 213.816 61.3675C213.816 61.5085 213.806 61.9114 213.786 62.5761C213.766 63.2408 213.755 64.0264 213.755 64.9328V70.5526C213.755 71.3986 213.866 71.9626 214.088 72.2446C214.33 72.5065 214.823 72.6374 215.568 72.6374ZM203.785 72.9698C205.336 72.9698 206.111 72.0029 206.111 70.0692C206.111 69.0419 205.859 68.2261 205.356 67.6219C204.872 67.0176 204.097 66.7154 203.029 66.7154C202.405 66.7154 201.821 66.8061 201.277 66.9874V69.7066C201.277 70.7541 201.478 71.5598 201.881 72.1238C202.304 72.6878 202.939 72.9698 203.785 72.9698ZM227.787 71.2174C227.848 71.2174 227.898 71.2576 227.938 71.3382C227.999 71.3986 228.009 71.4591 227.969 71.5195C227.264 72.1641 226.539 72.6374 225.793 72.9396C225.068 73.2216 224.283 73.3626 223.437 73.3626C222.228 73.3626 221.181 73.1007 220.294 72.577C219.428 72.0331 218.763 71.3181 218.3 70.4318C217.857 69.5455 217.635 68.5887 217.635 67.5614C217.635 66.373 217.917 65.2853 218.481 64.2983C219.066 63.2911 219.861 62.5056 220.868 61.9416C221.896 61.3574 223.024 61.0654 224.252 61.0654C225.38 61.0654 226.257 61.3373 226.881 61.8811C227.505 62.4049 227.818 63.13 227.818 64.0566C227.818 64.5601 227.707 64.8119 227.485 64.8119H226.035L220.083 64.8724C220.002 65.2752 219.962 65.7687 219.962 66.3529C219.962 68.0851 220.375 69.4851 221.201 70.5526C222.047 71.6202 223.205 72.154 224.675 72.154C225.844 72.154 226.871 71.8418 227.757 71.2174H227.787ZM223.195 61.6696C222.45 61.6696 221.815 61.9114 221.291 62.3948C220.768 62.8581 220.395 63.5228 220.173 64.3889L225.37 64.2681C225.35 63.4624 225.149 62.8279 224.766 62.3646C224.383 61.9013 223.86 61.6696 223.195 61.6696Z" fill="#E5E5E5"/>
<path d="M165.004 79.5344C165.555 79.5344 166.065 79.6822 166.535 79.9776C167.005 80.273 167.381 80.7027 167.663 81.2667C167.945 81.8307 168.086 82.4887 168.086 83.2407C168.086 84.2479 167.858 85.1006 167.401 85.7989C166.945 86.4837 166.381 86.994 165.709 87.3297C165.051 87.6654 164.4 87.8333 163.755 87.8333C163.339 87.8333 162.963 87.793 162.627 87.7124C162.305 87.6319 161.969 87.4976 161.62 87.3096V91.4792C161.62 91.882 161.667 92.1774 161.761 92.3654C161.869 92.5534 162.063 92.681 162.345 92.7482C162.627 92.8287 163.057 92.869 163.635 92.869C163.661 92.869 163.675 92.9093 163.675 92.9899C163.675 93.0704 163.661 93.1107 163.635 93.1107C163.178 93.1107 162.815 93.104 162.547 93.0906L161.076 93.0704L159.969 93.0906C159.781 93.104 159.532 93.1107 159.223 93.1107C159.183 93.1107 159.163 93.0704 159.163 92.9899C159.163 92.9093 159.183 92.869 159.223 92.869C159.586 92.869 159.854 92.8287 160.029 92.7482C160.204 92.681 160.324 92.5534 160.392 92.3654C160.459 92.1774 160.492 91.882 160.492 91.4792V82.012C160.492 81.5286 160.439 81.1862 160.331 80.9847C160.224 80.7699 160.036 80.6624 159.767 80.6624C159.472 80.6624 159.116 80.7564 158.7 80.9444L158.659 80.9646C158.606 80.9646 158.572 80.931 158.559 80.8639C158.532 80.7967 158.538 80.7497 158.579 80.7229L160.815 79.6553C160.841 79.6419 160.888 79.6352 160.956 79.6352C161.144 79.6352 161.298 79.7762 161.419 80.0582C161.54 80.3402 161.607 80.743 161.62 81.2667C162.762 80.1119 163.89 79.5344 165.004 79.5344ZM164.36 87.4103C165.071 87.4103 165.656 87.1014 166.112 86.4837C166.569 85.8526 166.797 84.9797 166.797 83.8652C166.797 82.7372 166.549 81.8643 166.052 81.2466C165.555 80.6154 164.924 80.2999 164.158 80.2999C163.688 80.2999 163.252 80.414 162.849 80.6423C162.446 80.8706 162.037 81.1929 161.62 81.6092V86.1413C161.983 86.5576 162.379 86.8732 162.809 87.088C163.238 87.3029 163.755 87.4103 164.36 87.4103ZM176.198 86.4434C176.239 86.4434 176.272 86.4703 176.299 86.524C176.339 86.5643 176.346 86.6046 176.319 86.6449C175.406 87.4237 174.426 87.8132 173.378 87.8132C172.586 87.8132 171.901 87.6319 171.324 87.2693C170.746 86.9067 170.31 86.4367 170.015 85.8593C169.733 85.2684 169.592 84.6306 169.592 83.9457C169.592 83.14 169.78 82.4082 170.156 81.7502C170.545 81.0922 171.069 80.5752 171.727 80.1992C172.385 79.8097 173.117 79.615 173.922 79.615C174.647 79.615 175.211 79.7963 175.614 80.1589C176.017 80.508 176.219 80.9914 176.219 81.6092C176.219 81.7703 176.198 81.8912 176.158 81.9717C176.131 82.0389 176.071 82.0724 175.977 82.0724L171.022 82.1127C170.955 82.4753 170.921 82.8244 170.921 83.1602C170.921 84.3284 171.203 85.2819 171.767 86.0204C172.331 86.7456 173.11 87.1082 174.104 87.1082C174.869 87.1082 175.561 86.8866 176.178 86.4434H176.198ZM173.237 80.0179C172.687 80.0179 172.224 80.179 171.848 80.5013C171.485 80.8102 171.23 81.2533 171.082 81.8307L174.829 81.7502C174.829 81.1996 174.681 80.7766 174.386 80.4812C174.104 80.1723 173.721 80.0179 173.237 80.0179ZM191.974 86.4032C192.028 86.4032 192.062 86.4367 192.075 86.5039C192.102 86.5576 192.095 86.5979 192.055 86.6247L189.678 87.7326C189.651 87.746 189.618 87.7527 189.577 87.7527C189.443 87.7527 189.309 87.5983 189.175 87.2894C189.054 86.9806 188.993 86.5844 188.993 86.101V86.0809C188.04 87.2223 187.046 87.793 186.012 87.793C185.408 87.793 184.918 87.6453 184.542 87.3499C184.179 87.041 183.951 86.5912 183.857 86.0003C182.89 87.1954 181.876 87.793 180.815 87.793C180.104 87.793 179.56 87.5916 179.184 87.1887C178.808 86.7724 178.62 86.1547 178.62 85.3356V82.1732C178.62 81.6494 178.573 81.2734 178.479 81.0452C178.385 80.8034 178.23 80.6826 178.015 80.6826C177.827 80.6826 177.599 80.7497 177.331 80.884H177.31C177.257 80.884 177.216 80.8504 177.19 80.7833C177.163 80.7027 177.176 80.6557 177.23 80.6423L179.466 79.6352L179.546 79.615C179.587 79.615 179.627 79.6352 179.667 79.6754C179.721 79.7023 179.748 79.7359 179.748 79.7762V84.6306C179.748 85.4229 179.889 86.0137 180.171 86.4032C180.453 86.7792 180.889 86.9672 181.48 86.9672C181.883 86.9672 182.286 86.853 182.689 86.6247C183.105 86.3964 183.488 86.0809 183.837 85.678C183.823 85.6243 183.817 85.5236 183.817 85.3759V82.1732C183.817 81.6494 183.77 81.2734 183.676 81.0452C183.582 80.8034 183.427 80.6826 183.212 80.6826C183.065 80.6826 182.836 80.7497 182.527 80.884H182.507C182.454 80.884 182.413 80.8504 182.386 80.7833C182.36 80.7027 182.373 80.6557 182.427 80.6423L184.663 79.6352L184.743 79.615C184.783 79.615 184.824 79.6352 184.864 79.6754C184.918 79.7023 184.945 79.7359 184.945 79.7762V84.6306C184.945 85.4229 185.086 86.0137 185.368 86.4032C185.65 86.7792 186.086 86.9672 186.677 86.9672C187.08 86.9672 187.483 86.8597 187.885 86.6449C188.288 86.4166 188.658 86.1077 188.993 85.7183V82.1732C188.993 81.636 188.946 81.2533 188.852 81.025C188.772 80.7967 188.617 80.6826 188.389 80.6826C188.241 80.6826 188.013 80.7497 187.704 80.884H187.684C187.63 80.884 187.59 80.8504 187.563 80.7833C187.536 80.7027 187.55 80.6557 187.603 80.6423L189.859 79.6352L189.92 79.615C189.96 79.615 190 79.6352 190.041 79.6754C190.094 79.7023 190.121 79.7359 190.121 79.7762V85.4162C190.121 85.8593 190.175 86.1883 190.282 86.4032C190.403 86.6046 190.591 86.7053 190.846 86.7053C190.981 86.7053 191.135 86.6784 191.31 86.6247C191.498 86.5576 191.706 86.4837 191.934 86.4032H191.974ZM199.43 86.4434C199.47 86.4434 199.504 86.4703 199.53 86.524C199.571 86.5643 199.577 86.6046 199.551 86.6449C198.637 87.4237 197.657 87.8132 196.61 87.8132C195.817 87.8132 195.133 87.6319 194.555 87.2693C193.978 86.9067 193.541 86.4367 193.246 85.8593C192.964 85.2684 192.823 84.6306 192.823 83.9457C192.823 83.14 193.011 82.4082 193.387 81.7502C193.776 81.0922 194.3 80.5752 194.958 80.1992C195.616 79.8097 196.348 79.615 197.154 79.615C197.879 79.615 198.443 79.7963 198.846 80.1589C199.248 80.508 199.45 80.9914 199.45 81.6092C199.45 81.7703 199.43 81.8912 199.389 81.9717C199.363 82.0389 199.302 82.0724 199.208 82.0724L194.253 82.1127C194.186 82.4753 194.152 82.8244 194.152 83.1602C194.152 84.3284 194.434 85.2819 194.998 86.0204C195.562 86.7456 196.341 87.1082 197.335 87.1082C198.1 87.1082 198.792 86.8866 199.41 86.4434H199.43ZM196.469 80.0179C195.918 80.0179 195.455 80.179 195.079 80.5013C194.716 80.8102 194.461 81.2533 194.313 81.8307L198.06 81.7502C198.06 81.1996 197.912 80.7766 197.617 80.4812C197.335 80.1723 196.952 80.0179 196.469 80.0179ZM210.089 87.3297C210.116 87.3297 210.13 87.37 210.13 87.4506C210.13 87.5312 210.116 87.5714 210.089 87.5714C209.74 87.5714 209.465 87.5647 209.263 87.5513L208.256 87.5312L207.169 87.5513C206.981 87.5647 206.719 87.5714 206.383 87.5714C206.343 87.5714 206.323 87.5312 206.323 87.4506C206.323 87.37 206.343 87.3297 206.383 87.3297C206.759 87.3297 207.034 87.2962 207.209 87.229C207.383 87.1619 207.504 87.0343 207.571 86.8463C207.639 86.6449 207.672 86.3427 207.672 85.9399V83.8853H203.382V85.9399C203.382 86.3427 203.409 86.6449 203.462 86.8463C203.529 87.0343 203.65 87.1619 203.825 87.229C204.013 87.2962 204.295 87.3297 204.671 87.3297C204.698 87.3297 204.711 87.37 204.711 87.4506C204.711 87.5312 204.698 87.5714 204.671 87.5714C204.322 87.5714 204.046 87.5647 203.845 87.5513L202.838 87.5312L201.77 87.5513C201.582 87.5647 201.314 87.5714 200.965 87.5714C200.924 87.5714 200.904 87.5312 200.904 87.4506C200.904 87.37 200.924 87.3297 200.965 87.3297C201.341 87.3297 201.616 87.2962 201.79 87.229C201.978 87.1619 202.099 87.0343 202.153 86.8463C202.22 86.6449 202.254 86.3427 202.254 85.9399V82.1732C202.254 81.6494 202.207 81.2734 202.113 81.0452C202.019 80.8034 201.864 80.6826 201.649 80.6826C201.529 80.6826 201.3 80.7497 200.965 80.884H200.944C200.891 80.884 200.85 80.8504 200.824 80.7833C200.797 80.7027 200.81 80.6557 200.864 80.6423L203.1 79.6352L203.2 79.615C203.227 79.615 203.261 79.6352 203.301 79.6754C203.355 79.7023 203.382 79.7359 203.382 79.7762V83.4824H207.672V82.1732C207.672 81.6494 207.625 81.2734 207.531 81.0452C207.437 80.8034 207.283 80.6826 207.068 80.6826C206.947 80.6826 206.719 80.7497 206.383 80.884H206.363C206.309 80.884 206.269 80.8504 206.242 80.7833C206.215 80.7027 206.229 80.6557 206.282 80.6423L208.518 79.6352L208.619 79.615C208.659 79.615 208.699 79.6352 208.74 79.6754C208.78 79.7023 208.8 79.7359 208.8 79.7762V85.9399C208.8 86.3427 208.827 86.6449 208.881 86.8463C208.948 87.0343 209.069 87.1619 209.243 87.229C209.431 87.2962 209.713 87.3297 210.089 87.3297ZM220.398 86.4233C220.451 86.4233 220.485 86.4569 220.498 86.524C220.525 86.5777 220.512 86.618 220.458 86.6449L218.101 87.7527L218.021 87.7729C217.887 87.7729 217.759 87.6184 217.638 87.3096C217.517 87.0007 217.457 86.5979 217.457 86.101V86.0204C216.933 86.6113 216.409 87.0477 215.886 87.3297C215.362 87.5983 214.818 87.7326 214.254 87.7326C213.583 87.7326 213.059 87.5244 212.683 87.1082C212.307 86.6784 212.119 86.0607 212.119 85.255V82.1732C212.119 81.6494 212.072 81.2734 211.978 81.0452C211.884 80.8034 211.73 80.6826 211.515 80.6826C211.327 80.6826 211.098 80.7497 210.83 80.884H210.81C210.756 80.884 210.716 80.8504 210.689 80.7833C210.662 80.7027 210.675 80.6557 210.729 80.6423L212.965 79.6352L213.046 79.615C213.086 79.615 213.126 79.6352 213.166 79.6754C213.22 79.7023 213.247 79.7359 213.247 79.7762V84.5903C213.247 86.148 213.811 86.9269 214.939 86.9269C215.369 86.9269 215.805 86.8194 216.248 86.6046C216.691 86.3763 217.094 86.0674 217.457 85.678V82.1732C217.457 81.636 217.41 81.2533 217.316 81.025C217.235 80.7967 217.081 80.6826 216.853 80.6826C216.665 80.6826 216.436 80.7497 216.168 80.884H216.148C216.094 80.884 216.054 80.8504 216.027 80.7833C216.013 80.7027 216.033 80.6557 216.087 80.6423L218.323 79.6352L218.383 79.615C218.424 79.615 218.464 79.6352 218.504 79.6754C218.558 79.7023 218.585 79.7359 218.585 79.7762V85.4162C218.585 85.8727 218.639 86.2017 218.746 86.4032C218.853 86.6046 219.035 86.7053 219.29 86.7053C219.518 86.7053 219.874 86.6113 220.357 86.4233H220.398ZM228.357 87.3297C228.384 87.3297 228.398 87.37 228.398 87.4506C228.398 87.5312 228.384 87.5714 228.357 87.5714C228.049 87.5714 227.807 87.5647 227.632 87.5513L226.605 87.5312L225.537 87.5513C225.349 87.5647 225.088 87.5714 224.752 87.5714C224.725 87.5714 224.712 87.5312 224.712 87.4506C224.712 87.37 224.725 87.3297 224.752 87.3297C225.114 87.3297 225.376 87.2962 225.537 87.229C225.712 87.1619 225.826 87.0343 225.88 86.8463C225.947 86.6583 225.981 86.3562 225.981 85.9399V83.7443C225.484 83.7712 225.047 83.9457 224.671 84.268C224.295 84.5769 223.892 85.1342 223.463 85.9399C223.06 86.665 222.791 87.1216 222.657 87.3096C222.536 87.4842 222.409 87.5714 222.274 87.5714H220.522C220.495 87.5714 220.482 87.5312 220.482 87.4506C220.482 87.37 220.495 87.3297 220.522 87.3297C220.925 87.3297 221.247 87.2022 221.489 86.947C221.744 86.6784 221.945 86.3964 222.093 86.101C222.254 85.8056 222.362 85.6176 222.415 85.537C222.67 85.0804 222.979 84.6977 223.342 84.3889C223.718 84.0666 224.127 83.8584 224.571 83.7644C222.946 83.6436 222.133 82.999 222.133 81.8307C222.133 81.1862 222.368 80.6759 222.838 80.2999C223.322 79.9239 223.96 79.7359 224.752 79.7359C224.9 79.7359 225.188 79.7493 225.618 79.7762C225.981 79.8164 226.31 79.8366 226.605 79.8366L227.612 79.8164C227.787 79.803 228.028 79.7963 228.337 79.7963C228.364 79.7963 228.378 79.8366 228.378 79.9172C228.378 79.9977 228.364 80.038 228.337 80.038C227.988 80.038 227.726 80.0783 227.552 80.1589C227.391 80.226 227.276 80.3536 227.209 80.5416C227.142 80.7296 227.109 81.025 227.109 81.4279V85.9399C227.109 86.3293 227.142 86.6247 227.209 86.8262C227.29 87.0142 227.411 87.1484 227.572 87.229C227.746 87.2962 228.008 87.3297 228.357 87.3297ZM223.342 81.3674C223.342 81.9986 223.503 82.5156 223.825 82.9184C224.148 83.3079 224.604 83.5026 225.195 83.5026C225.45 83.5026 225.712 83.4824 225.981 83.4422V81.4682C225.981 81.0384 225.947 80.7229 225.88 80.5214C225.813 80.32 225.692 80.179 225.517 80.0984C225.343 80.0179 225.081 79.9776 224.732 79.9776C224.275 79.9776 223.926 80.0984 223.684 80.3402C223.456 80.5819 223.342 80.9243 223.342 81.3674Z" fill="#E5E5E5"/>
</svg>
